<svg width="48" height="48" viewBox="0 0 48 48" fill="none" xmlns="http://www.w3.org/2000/svg">
<path d="M37.2253 25.3361H7.70263C7.31114 25.3361 6.93567 25.1805 6.65885 24.9037C6.38202 24.6269 6.2265 24.2514 6.2265 23.8599C6.2265 23.4684 6.38202 23.093 6.65885 22.8161C6.93567 22.5393 7.31114 22.3838 7.70263 22.3838H37.2253C37.6168 22.3838 37.9922 22.5393 38.2691 22.8161C38.5459 23.093 38.7014 23.4684 38.7014 23.8599C38.7014 24.2514 38.5459 24.6269 38.2691 24.9037C37.9922 25.1805 37.6168 25.3361 37.2253 25.3361Z" fill="url(#paint0_linear_285_143)"/>
<path d="M36.6142 23.86L24.3711 11.6199C24.0939 11.3427 23.9382 10.9668 23.9382 10.5748C23.9382 10.1828 24.0939 9.80686 24.3711 9.52968C24.6483 9.2525 25.0242 9.09678 25.4162 9.09678C25.8082 9.09678 26.1841 9.2525 26.4613 9.52968L39.7465 22.8149C39.884 22.952 39.993 23.1149 40.0675 23.2942C40.1419 23.4736 40.1802 23.6658 40.1802 23.86C40.1802 24.0541 40.1419 24.2464 40.0675 24.4257C39.993 24.6051 39.884 24.768 39.7465 24.9051L26.4613 38.1903C26.1841 38.4675 25.8082 38.6232 25.4162 38.6232C25.0242 38.6232 24.6483 38.4675 24.3711 38.1903C24.0939 37.9131 23.9382 37.5372 23.9382 37.1452C23.9382 36.7532 24.0939 36.3772 24.3711 36.1001L36.6142 23.86Z" fill="url(#paint1_linear_285_143)"/>
<defs>
<linearGradient id="paint0_linear_285_143" x1="22.464" y1="22.3838" x2="22.464" y2="25.3361" gradientUnits="userSpaceOnUse">
<stop stop-color="#000428"/>
<stop offset="1" stop-color="#004E92"/>
</linearGradient>
<linearGradient id="paint1_linear_285_143" x1="32.0592" y1="9.09678" x2="32.0592" y2="38.6232" gradientUnits="userSpaceOnUse">
<stop stop-color="#000428"/>
<stop offset="1" stop-color="#004E92"/>
</linearGradient>
</defs>
</svg>
