<svg width="42" height="42" viewBox="0 0 42 42" fill="none" xmlns="http://www.w3.org/2000/svg">
<path d="M9.1875 19.6875L35.4375 19.6875C35.7856 19.6875 36.1194 19.8258 36.3656 20.0719C36.6117 20.3181 36.75 20.6519 36.75 21C36.75 21.3481 36.6117 21.6819 36.3656 21.9281C36.1194 22.1742 35.7856 22.3125 35.4375 22.3125L9.1875 22.3125C8.8394 22.3125 8.50556 22.1742 8.25942 21.9281C8.01328 21.6819 7.875 21.3481 7.875 21C7.875 20.6519 8.01328 20.3181 8.25942 20.0719C8.50556 19.8258 8.8394 19.6875 9.1875 19.6875Z" fill="#C8B172"/>
<path d="M9.73127 20.9999L20.6171 31.8832C20.8636 32.1297 21.0021 32.4639 21.0021 32.8124C21.0021 33.161 20.8636 33.4952 20.6171 33.7417C20.3707 33.9882 20.0364 34.1266 19.6879 34.1266C19.3394 34.1266 19.0051 33.9882 18.7586 33.7417L6.94614 21.9292C6.82392 21.8073 6.72694 21.6624 6.66077 21.503C6.59461 21.3435 6.56055 21.1726 6.56055 20.9999C6.56055 20.8273 6.59461 20.6564 6.66077 20.4969C6.72694 20.3375 6.82392 20.1926 6.94614 20.0707L18.7586 8.2582C19.0051 8.01175 19.3394 7.87329 19.6879 7.87329C20.0364 7.87329 20.3707 8.01175 20.6171 8.2582C20.8636 8.50465 21.002 8.83891 21.002 9.18745C21.002 9.53598 20.8636 9.87025 20.6171 10.1167L9.73127 20.9999Z" fill="#C8B172"/>
</svg>
