<svg width="27" height="28" viewBox="0 0 27 28" fill="none" xmlns="http://www.w3.org/2000/svg">
<path d="M20.1854 17.7876L20.1853 17.7876L19.8907 18.0823C19.8907 18.0823 19.8907 18.0823 19.8907 18.0823C19.8907 18.0823 19.8907 18.0823 19.8907 18.0823C19.8093 18.1636 19.6774 18.1636 19.596 18.0823C19.596 18.0823 19.596 18.0823 19.596 18.0823L13.96 12.4462L13.6654 12.1516L13.3707 12.4462L7.7347 18.0823C7.65333 18.1637 7.52147 18.1637 7.4401 18.0823L7.1454 17.7876C7.06403 17.7062 7.06403 17.5744 7.1454 17.493L13.5181 11.1203C13.5995 11.0389 13.7313 11.0389 13.8127 11.1203L20.1854 17.493C20.1854 17.493 20.1854 17.493 20.1854 17.493C20.2667 17.5744 20.2667 17.7062 20.1854 17.7876Z" fill="black" stroke="black" stroke-width="0.833412"/>
</svg>
