<svg width="27" height="27" viewBox="0 0 27 27" fill="none" xmlns="http://www.w3.org/2000/svg">
<path d="M6.81465 9.8534L6.81466 9.85339L7.10931 9.55871C7.10931 9.5587 7.10932 9.5587 7.10932 9.5587C7.19068 9.47735 7.32259 9.47734 7.40396 9.55871C7.40396 9.55871 7.40396 9.55871 7.40396 9.55871L13.04 15.1947L13.3346 15.4894L13.6293 15.1947L19.2653 9.55871C19.3467 9.47734 19.4785 9.47734 19.5599 9.55871L19.8546 9.85341C19.936 9.93478 19.936 10.0666 19.8546 10.148L13.4819 16.5207C13.4005 16.6021 13.2687 16.6021 13.1873 16.5207L6.81465 10.148C6.81465 10.148 6.81465 10.148 6.81464 10.148C6.73328 10.0666 6.73328 9.93477 6.81465 9.8534Z" fill="black" stroke="black" stroke-width="0.833412"/>
</svg>
