<svg width="69" height="70" viewBox="0 0 69 70" fill="none" xmlns="http://www.w3.org/2000/svg">
<rect x="1.5" y="1.77148" width="66" height="66" rx="33" stroke="white" stroke-width="3"/>
<path d="M29.5934 42.1384L36.5944 35.1375L36.9604 34.7715L36.5944 34.4054L29.5934 27.4045C29.4924 27.3034 29.4924 27.1396 29.5934 27.0385L29.9595 26.6725C30.0606 26.5714 30.2244 26.5714 30.3255 26.6725L38.2415 34.5885C38.3426 34.6896 38.3426 34.8534 38.2415 34.9544L30.3255 42.8704C30.3255 42.8704 30.3255 42.8704 30.3255 42.8704C30.2244 42.9715 30.0606 42.9715 29.9595 42.8704L29.9595 42.8704L29.5934 42.5044C29.5934 42.5044 29.5934 42.5044 29.5934 42.5044C29.5934 42.5044 29.5934 42.5044 29.5934 42.5044C29.4924 42.4033 29.4924 42.2395 29.5934 42.1384C29.5934 42.1384 29.5934 42.1384 29.5934 42.1384Z" fill="black" stroke="white" stroke-width="1.03525"/>
</svg>
