<svg width="69" height="70" viewBox="0 0 69 70" fill="none" xmlns="http://www.w3.org/2000/svg">
<rect x="1.5" y="1.77148" width="66" height="66" rx="33" stroke="white" stroke-width="3"/>
<path d="M38.2415 27.4046L31.2406 34.4055L30.8745 34.7715L31.2406 35.1375L38.2415 42.1385C38.3426 42.2396 38.3426 42.4034 38.2415 42.5044L37.8755 42.8705C37.7744 42.9716 37.6106 42.9716 37.5095 42.8705L29.5935 34.9545C29.4924 34.8534 29.4924 34.6896 29.5935 34.5885L37.5095 26.6725C37.5095 26.6725 37.5095 26.6725 37.5095 26.6725C37.6106 26.5715 37.7744 26.5715 37.8755 26.6725L37.8755 26.6725L38.2415 27.0386C38.2415 27.0386 38.2415 27.0386 38.2415 27.0386C38.2415 27.0386 38.2415 27.0386 38.2415 27.0386C38.3426 27.1396 38.3426 27.3035 38.2415 27.4046C38.2415 27.4046 38.2415 27.4046 38.2415 27.4046Z" fill="black" stroke="white" stroke-width="1.03525"/>
</svg>
