<svg width="100" height="100" viewBox="0 0 100 100" fill="none" xmlns="http://www.w3.org/2000/svg">
<path d="M35.8333 65L20.8333 50L35.8333 35L41.6667 40.9375L32.6042 50L41.6667 59.0625L35.8333 65ZM64.1667 65L58.3333 59.0625L67.3958 50L58.3333 40.9375L64.1667 35L79.1667 50L64.1667 65ZM20.8333 87.5C18.5417 87.5 16.5799 86.684 14.9479 85.0521C13.316 83.4201 12.5 81.4583 12.5 79.1667V62.5H20.8333V79.1667H37.5V87.5H20.8333ZM62.5 87.5V79.1667H79.1667V62.5H87.5V79.1667C87.5 81.4583 86.684 83.4201 85.0521 85.0521C83.4201 86.684 81.4583 87.5 79.1667 87.5H62.5ZM12.5 37.5V20.8333C12.5 18.5417 13.316 16.5799 14.9479 14.9479C16.5799 13.316 18.5417 12.5 20.8333 12.5H37.5V20.8333H20.8333V37.5H12.5ZM79.1667 37.5V20.8333H62.5V12.5H79.1667C81.4583 12.5 83.4201 13.316 85.0521 14.9479C86.684 16.5799 87.5 18.5417 87.5 20.8333V37.5H79.1667Z" fill="white"/>
</svg>
