<svg width="26" height="27" viewBox="0 0 26 27" fill="none" xmlns="http://www.w3.org/2000/svg">
<g clip-path="url(#clip0_308_4300)">
<path d="M23.0691 4.88373C22.972 4.87372 22.8741 4.87372 22.777 4.88373H2.82876C2.70091 4.8857 2.57391 4.90487 2.45117 4.94072L12.7459 15.1927L23.0691 4.88373Z" fill="#0A0909"/>
<path d="M24.1236 5.87378L13.7505 16.2041C13.4836 16.4695 13.1224 16.6184 12.746 16.6184C12.3696 16.6184 12.0084 16.4695 11.7415 16.2041L1.461 5.95215C1.4294 6.0683 1.41264 6.188 1.41113 6.30837V20.5571C1.41113 20.935 1.56125 21.2974 1.82847 21.5646C2.09568 21.8318 2.45811 21.982 2.83601 21.982H22.7842C23.1621 21.982 23.5245 21.8318 23.7918 21.5646C24.059 21.2974 24.2091 20.935 24.2091 20.5571V6.30837C24.2034 6.15993 24.1746 6.0133 24.1236 5.87378ZM3.81204 20.5571H2.82176V19.5383L8.00117 14.4016L9.0057 15.4062L3.81204 20.5571ZM22.77 20.5571H21.7726L16.5789 15.4062L17.5834 14.4016L22.7628 19.5383L22.77 20.5571Z" fill="#0A0909"/>
</g>
<defs>
<clipPath id="clip0_308_4300">
<rect width="25.6477" height="25.6477" fill="white" transform="translate(0.0361328 0.608887)"/>
</clipPath>
</defs>
</svg>
