<svg width="100" height="100" viewBox="0 0 100 100" fill="none" xmlns="http://www.w3.org/2000/svg">
<g clip-path="url(#clip0_551_321)">
<path d="M8.33333 83.3333C6.04167 83.3333 4.07986 82.5174 2.44792 80.8854C0.815972 79.2535 0 77.2917 0 75H16.6667C14.375 75 12.4132 74.184 10.7812 72.5521C9.14931 70.9201 8.33333 68.9583 8.33333 66.6667V20.8333C8.33333 18.5417 9.14931 16.5799 10.7812 14.9479C12.4132 13.316 14.375 12.5 16.6667 12.5H83.3333C85.625 12.5 87.5868 13.316 89.2188 14.9479C90.8507 16.5799 91.6667 18.5417 91.6667 20.8333V66.6667C91.6667 68.9583 90.8507 70.9201 89.2188 72.5521C87.5868 74.184 85.625 75 83.3333 75H100C100 77.2917 99.184 79.2535 97.5521 80.8854C95.9201 82.5174 93.9583 83.3333 91.6667 83.3333H8.33333ZM50 79.1667C51.1806 79.1667 52.1701 78.7674 52.9688 77.9688C53.7674 77.1701 54.1667 76.1806 54.1667 75C54.1667 73.8194 53.7674 72.8299 52.9688 72.0313C52.1701 71.2326 51.1806 70.8333 50 70.8333C48.8194 70.8333 47.8299 71.2326 47.0312 72.0313C46.2326 72.8299 45.8333 73.8194 45.8333 75C45.8333 76.1806 46.2326 77.1701 47.0312 77.9688C47.8299 78.7674 48.8194 79.1667 50 79.1667ZM16.6667 66.6667H83.3333V20.8333H16.6667V66.6667Z" fill="white"/>
</g>
<defs>
<clipPath id="clip0_551_321">
<rect width="100" height="100" fill="white"/>
</clipPath>
</defs>
</svg>
