<svg width="76" height="41" viewBox="0 0 76 41" fill="none" xmlns="http://www.w3.org/2000/svg">
<path d="M16.6843 15.3479C19.9691 15.3479 23.1802 16.094 25.9114 17.4919C28.6427 18.8898 30.7714 20.8766 32.0285 23.2011C33.2855 25.5257 33.6144 28.0836 32.9736 30.5513C32.3327 33.019 30.7509 35.2858 28.4282 37.0649C26.1055 38.844 23.1462 40.0556 19.9245 40.5465C16.7027 41.0374 13.3633 40.7854 10.3286 39.8226C7.29377 38.8597 4.6999 37.2292 2.87494 35.1371C1.04999 33.0451 0.0759241 30.5855 0.0759241 28.0694L0 26.2521C0 19.5042 3.49961 13.0327 9.72897 8.26117C15.9583 3.48968 24.4071 0.809082 33.2168 0.809082V8.07851C30.0996 8.07209 27.0117 8.53907 24.1317 9.45243C21.2516 10.3658 18.6365 11.7074 16.4376 13.3997C15.5828 14.053 14.7944 14.7554 14.0792 15.5006C14.9302 15.3964 15.797 15.3443 16.6796 15.3443L16.6843 15.3479ZM59.3916 15.3479C62.6764 15.3479 65.8875 16.094 68.6187 17.4919C71.35 18.8898 73.4787 20.8766 74.7358 23.2011C75.9928 25.5257 76.3217 28.0836 75.6809 30.5513C75.04 33.019 73.4582 35.2858 71.1355 37.0649C68.8128 38.844 65.8535 40.0556 62.6317 40.5465C59.41 41.0374 56.0706 40.7854 53.0359 39.8226C50.0011 38.8597 47.4072 37.2292 45.5822 35.1371C43.7573 33.0451 42.7832 30.5855 42.7832 28.0694L42.7073 26.2521C42.7073 19.5042 46.2069 13.0327 52.4363 8.26117C58.6656 3.48968 67.1144 0.809082 75.9241 0.809082V8.07851C72.8069 8.07209 69.719 8.53907 66.839 9.45243C63.9589 10.3658 61.3438 11.7074 59.1448 13.3997C58.2901 14.053 57.5017 14.7554 56.7865 15.5006C57.6374 15.3964 58.5058 15.3479 59.3916 15.3479Z" fill="url(#paint0_linear_423_318)"/>
<defs>
<linearGradient id="paint0_linear_423_318" x1="0" y1="20.8" x2="76" y2="20.8" gradientUnits="userSpaceOnUse">
<stop stop-color="#FFE259"/>
<stop offset="1" stop-color="#FFA751"/>
</linearGradient>
</defs>
</svg>
