<svg width="38" height="42" viewBox="0 0 38 42" fill="none" xmlns="http://www.w3.org/2000/svg">
<path d="M29.6875 22.3125L5.9375 22.3125C5.62256 22.3125 5.32051 22.1742 5.09781 21.9281C4.87511 21.6819 4.75 21.3481 4.75 21C4.75 20.6519 4.87511 20.3181 5.09781 20.0719C5.32051 19.8258 5.62256 19.6875 5.9375 19.6875L29.6875 19.6875C30.0024 19.6875 30.3045 19.8258 30.5272 20.0719C30.7499 20.3181 30.875 20.6519 30.875 21C30.875 21.3481 30.7499 21.6819 30.5272 21.9281C30.3045 22.1742 30.0024 22.3125 29.6875 22.3125Z" fill="#C8B172"/>
<path d="M29.1957 21.0001L19.3466 10.1168C19.1236 9.87035 18.9983 9.53609 18.9983 9.18755C18.9983 8.83902 19.1236 8.50476 19.3466 8.25831C19.5696 8.01185 19.872 7.8734 20.1873 7.8734C20.5027 7.8734 20.8051 8.01185 21.0281 8.25831L31.7156 20.0708C31.8262 20.1927 31.9139 20.3376 31.9738 20.497C32.0336 20.6565 32.0645 20.8274 32.0645 21.0001C32.0645 21.1727 32.0336 21.3436 31.9738 21.5031C31.9139 21.6625 31.8262 21.8074 31.7156 21.9293L21.0281 33.7418C20.8051 33.9883 20.5027 34.1267 20.1873 34.1267C19.872 34.1267 19.5696 33.9883 19.3466 33.7418C19.1236 33.4954 18.9983 33.1611 18.9983 32.8126C18.9983 32.464 19.1236 32.1298 19.3466 31.8833L29.1957 21.0001Z" fill="#C8B172"/>
</svg>
