<svg width="100" height="100" viewBox="0 0 100 100" fill="none" xmlns="http://www.w3.org/2000/svg">
<path d="M58.333 83.3333V75H70.833C72.0136 75 73.0031 74.6007 73.8018 73.802C74.6004 73.0034 74.9997 72.0138 74.9997 70.8333V62.5C74.9997 59.8611 75.7636 57.4652 77.2913 55.3125C78.8191 53.1597 80.833 51.6319 83.333 50.7291V49.2708C80.833 48.368 78.8191 46.8402 77.2913 44.6875C75.7636 42.5347 74.9997 40.1388 74.9997 37.5V29.1666C74.9997 27.9861 74.6004 26.9965 73.8018 26.1979C73.0031 25.3993 72.0136 25 70.833 25H58.333V16.6666H70.833C74.3052 16.6666 77.2566 17.8819 79.6872 20.3125C82.1177 22.743 83.333 25.6944 83.333 29.1666V37.5C83.333 38.6805 83.7323 39.6701 84.5309 40.4687C85.3295 41.2673 86.3191 41.6666 87.4997 41.6666H91.6663V58.3333H87.4997C86.3191 58.3333 85.3295 58.7326 84.5309 59.5312C83.7323 60.3298 83.333 61.3194 83.333 62.5V70.8333C83.333 74.3055 82.1177 77.2569 79.6872 79.6875C77.2566 82.118 74.3052 83.3333 70.833 83.3333H58.333ZM29.1663 83.3333C25.6941 83.3333 22.7427 82.118 20.3122 79.6875C17.8816 77.2569 16.6663 74.3055 16.6663 70.8333V62.5C16.6663 61.3194 16.267 60.3298 15.4684 59.5312C14.6698 58.7326 13.6802 58.3333 12.4997 58.3333H8.33301V41.6666H12.4997C13.6802 41.6666 14.6698 41.2673 15.4684 40.4687C16.267 39.6701 16.6663 38.6805 16.6663 37.5V29.1666C16.6663 25.6944 17.8816 22.743 20.3122 20.3125C22.7427 17.8819 25.6941 16.6666 29.1663 16.6666H41.6663V25H29.1663C27.9858 25 26.9962 25.3993 26.1976 26.1979C25.399 26.9965 24.9997 27.9861 24.9997 29.1666V37.5C24.9997 40.1388 24.2358 42.5347 22.708 44.6875C21.1802 46.8402 19.1663 48.368 16.6663 49.2708V50.7291C19.1663 51.6319 21.1802 53.1597 22.708 55.3125C24.2358 57.4652 24.9997 59.8611 24.9997 62.5V70.8333C24.9997 72.0138 25.399 73.0034 26.1976 73.802C26.9962 74.6007 27.9858 75 29.1663 75H41.6663V83.3333H29.1663Z" fill="white"/>
</svg>
