<svg width="21" height="26" viewBox="0 0 21 26" fill="none" xmlns="http://www.w3.org/2000/svg">
<path d="M5.25 20.8H15.75V18.2H5.25V20.8ZM5.25 15.6H15.75V13H5.25V15.6ZM2.625 26C1.90313 26 1.28516 25.7454 0.771094 25.2362C0.257031 24.7271 0 24.115 0 23.4V2.6C0 1.885 0.257031 1.27292 0.771094 0.76375C1.28516 0.254583 1.90313 0 2.625 0H13.125L21 7.8V23.4C21 24.115 20.743 24.7271 20.2289 25.2362C19.7148 25.7454 19.0969 26 18.375 26H2.625ZM11.8125 9.1V2.6H2.625V23.4H18.375V9.1H11.8125Z" fill="white"/>
</svg>
