<svg width="342" height="539" viewBox="0 0 342 539" fill="none" xmlns="http://www.w3.org/2000/svg">
<path d="M70.3478 0V62.7577C70.3478 67.4976 73.7738 71.34 78 71.34H132.043C136.27 71.34 139.696 75.1824 139.696 79.9222V140.534C139.696 145.274 143.122 149.117 147.348 149.117H201.391C205.617 149.117 209.043 152.959 209.043 157.699V218.311C209.043 223.051 212.469 226.893 216.696 226.893H270.739C274.965 226.893 278.391 230.736 278.391 235.476V296.088C278.391 300.828 281.817 304.67 286.043 304.67H342M1 0V62.7577C1 67.4976 4.42599 71.34 8.65217 71.34H62.6957C66.9218 71.34 70.3478 75.1824 70.3478 79.9222V140.534C70.3478 145.274 73.7738 149.117 78 149.117H132.043C136.27 149.117 139.696 152.959 139.696 157.699V218.311C139.696 223.051 136.27 226.893 132.043 226.893H78C73.7738 226.893 70.3478 223.051 70.3478 218.311V156.626L70.2809 156.119C69.7674 152.232 66.8254 149.33 63.3223 149.254L56.9565 149.117H8.65217C4.426 149.117 1 152.959 1 157.699V218.311C1 223.051 4.426 226.893 8.65217 226.893H63.1739L64.9905 227.029C68.0052 227.255 70.3478 230.063 70.3478 233.452V240.035M70.3478 233.33V296.088C70.3478 300.828 73.7738 304.67 78 304.67H132.043C136.27 304.67 139.696 308.512 139.696 313.252V373.864C139.696 378.604 143.122 382.447 147.348 382.447H201.391C205.617 382.447 209.043 386.289 209.043 391.029V451.641C209.043 456.381 212.469 460.223 216.696 460.223H270.739C274.965 460.223 278.391 464.066 278.391 468.806V529.418C278.391 534.158 281.817 538 286.043 538H342" stroke="url(#paint0_linear_465_2011)" stroke-opacity="0.8" stroke-width="1.51552"/>
<defs>
<linearGradient id="paint0_linear_465_2011" x1="1" y1="0" x2="381.54" y2="419.865" gradientUnits="userSpaceOnUse">
<stop offset="0.0819437" stop-color="#F7F7F7"/>
<stop offset="0.208333" stop-color="#12C2E9"/>
<stop offset="0.526042" stop-color="#C471ED"/>
<stop offset="0.9375" stop-color="#F64F59"/>
</linearGradient>
</defs>
</svg>
