<svg width="368" height="539" viewBox="0 0 368 539" fill="none" xmlns="http://www.w3.org/2000/svg">
<path d="M292.365 0V62.7577C292.365 67.4976 288.677 71.34 284.129 71.34H225.965C221.417 71.34 217.729 75.1824 217.729 79.9222V140.534C217.729 145.274 214.042 149.117 209.494 149.117H151.33C146.781 149.117 143.094 152.959 143.094 157.699V218.311C143.094 223.051 139.407 226.893 134.858 226.893H76.6942C72.1458 226.893 68.4586 230.736 68.4586 235.476V296.088C68.4586 300.828 64.7714 304.67 60.223 304.67H-8.46386e-06M367 0V62.7577C367 67.4976 363.313 71.34 358.764 71.34H300.6C296.052 71.34 292.365 75.1824 292.365 79.9222V140.534C292.365 145.274 288.677 149.117 284.129 149.117H225.965C221.417 149.117 217.729 152.959 217.729 157.699V218.311C217.729 223.051 221.417 226.893 225.965 226.893H284.129C288.677 226.893 292.365 223.051 292.365 218.311V156.626L292.437 156.119C292.989 152.232 296.156 149.33 299.926 149.254L306.777 149.117H358.764C363.313 149.117 367 152.959 367 157.699V218.311C367 223.051 363.313 226.893 358.764 226.893H300.086L298.131 227.029C294.886 227.255 292.365 230.063 292.365 233.452V240.035M292.365 233.33V296.088C292.365 300.828 288.677 304.67 284.129 304.67H225.965C221.417 304.67 217.729 308.512 217.729 313.252V373.864C217.729 378.604 214.042 382.447 209.494 382.447H151.33C146.781 382.447 143.094 386.289 143.094 391.029V451.641C143.094 456.381 139.407 460.223 134.858 460.223H76.6942C72.1458 460.223 68.4586 464.066 68.4586 468.806V529.418C68.4586 534.158 64.7714 538 60.223 538H-8.46386e-06" stroke="url(#paint0_linear_467_126)" stroke-opacity="0.8" stroke-width="1.51552"/>
<defs>
<linearGradient id="paint0_linear_467_126" x1="367" y1="0" x2="-9.80554" y2="447.444" gradientUnits="userSpaceOnUse">
<stop offset="0.0819437" stop-color="#F7F7F7"/>
<stop offset="0.208333" stop-color="#12C2E9"/>
<stop offset="0.526042" stop-color="#C471ED"/>
<stop offset="0.9375" stop-color="#F64F59"/>
</linearGradient>
</defs>
</svg>
