<svg width="174" height="174" viewBox="0 0 174 174" fill="none" xmlns="http://www.w3.org/2000/svg">
<path fill-rule="evenodd" clip-rule="evenodd" d="M148.33 75.3284C148.25 71.0937 148.104 67.2897 147.873 64.1962C147.16 54.6317 144.834 54.1894 136.162 53.8518C99.0634 52.4107 34.3824 53.6346 28.7311 54.3011C24.4267 54.8092 22.8254 56.1499 22.1182 60.8672C21.57 64.5252 21.236 77.3246 21.2163 91.4365C23.4725 91.3915 25.8252 91.3508 28.2298 91.3136C28.2608 83.2815 28.3379 73.6221 28.4879 61.9232C28.4879 61.7198 28.5251 61.5986 28.7666 61.5986C28.8017 61.5986 29.1804 61.5939 29.8655 61.5852C40.0384 61.4568 117.753 60.4754 140.466 61.6359C140.744 61.6502 140.74 61.8586 140.736 62.1342V62.1347C140.735 62.1746 140.734 62.2159 140.734 62.2582C140.749 66.82 140.758 71.225 140.762 75.4532C143.136 75.3951 145.736 75.3467 148.33 75.3284ZM148.165 104.001C145.729 104.043 143.162 104.075 140.708 104.086C140.626 119.679 140.46 129.822 140.27 132.163C75.5859 130.619 48.1178 131.246 36.5938 131.509H36.5933C29.5912 131.67 28.476 131.695 28.4749 131.017C28.4728 129.263 28.4422 127.206 28.4026 124.545V124.544V124.543V124.543L28.4026 124.542C28.3543 121.292 28.2925 117.143 28.2529 111.548C26.6738 111.563 25.1254 111.581 23.6258 111.597H23.6008C22.8585 111.606 22.1283 111.614 21.4123 111.621C21.6526 122.438 22.1221 131.727 22.8713 135.539C22.9012 135.691 22.9297 135.817 22.9537 135.925C23.0433 136.323 23.0716 136.449 22.8834 136.615C5.40384 151.868 5.54818 153.198 5.69771 154.576C5.7094 154.683 5.72113 154.791 5.72446 154.907C5.73255 155.188 5.73946 155.457 5.74606 155.713C5.83322 159.106 5.86589 160.378 7.87279 160.941C13.6028 162.55 152.385 162.851 152.406 162.851C152.85 162.851 153.298 162.853 153.747 162.855C158.944 162.882 164.301 162.909 164.409 159.446C164.412 159.369 164.414 159.285 164.418 159.194C164.466 157.843 164.569 154.973 163.561 153.721C159.926 149.211 154.457 144.417 150.786 141.199H150.785C148.468 139.168 146.868 137.764 146.897 137.458C147.145 134.75 147.805 120.13 148.165 104.001ZM35.3579 111.5C35.4411 111.557 35.5285 111.608 35.6195 111.653C36.1342 111.906 36.7271 111.949 37.2734 111.775C37.479 111.711 37.6735 111.618 37.851 111.498C37.0205 111.498 36.1887 111.499 35.3579 111.5ZM50.9863 102.775C51.6441 102.725 52.3036 102.479 52.3429 101.577C52.3736 100.866 51.881 100.296 50.9264 100.279L50.9559 101.507L50.9863 102.775ZM159.993 156.934C152.213 158.254 12.0872 155.958 11.9496 155.95C5.39555 155.574 5.77553 154.622 9.61254 150.826C13.4833 146.992 15.6454 145.03 17.874 143.007C18.8941 142.082 19.9281 141.143 21.1462 140.007C22.1881 139.034 22.789 138.425 23.1612 138.048C23.5856 137.619 23.7128 137.49 23.8572 137.466C23.9188 137.456 23.9837 137.465 24.0763 137.478C24.0999 137.481 24.1255 137.484 24.1532 137.488C30.3246 138.301 141.813 138.44 144.668 138.44C144.914 138.44 145.11 138.434 145.269 138.43C145.88 138.411 145.961 138.41 146.345 138.804C148.38 140.901 149.502 141.914 150.917 143.192C151.714 143.911 152.604 144.715 153.802 145.843C154.679 146.67 155.491 147.43 156.237 148.128C164.111 155.502 164.774 156.123 159.993 156.934ZM57.7596 77.1132C57.2961 77.1046 56.9265 77.108 56.6186 77.1108C55.68 77.1194 55.3136 77.1228 54.6072 76.767C53.5858 76.2545 54.0974 74.7078 55.5783 74.7095C58.8664 74.7144 62.2996 74.6815 65.4862 74.6509C71.8262 74.5901 77.1897 74.5386 78.4916 74.8134C78.7318 74.8545 78.948 74.9837 79.098 75.1758C79.248 75.3679 79.3209 75.609 79.3026 75.8521C79.1569 77.1258 78.6874 77.1222 77.5576 77.1134C77.4183 77.1123 77.2691 77.1111 77.1092 77.1123C74.1727 77.1356 72.1797 77.1613 70.5946 77.1817H70.5941C66.5909 77.2333 65.1888 77.2514 57.7596 77.1132ZM55.5931 125.128C54.1051 125.283 54.0186 126.709 54.7465 127.131L54.7487 127.131C54.8166 127.171 54.8793 127.208 54.9435 127.241C55.7164 127.645 56.7031 127.64 69.5727 127.567C71.7641 127.554 74.3001 127.54 77.2382 127.525C77.4287 127.524 77.6004 127.526 77.7562 127.528C78.5578 127.537 78.9387 127.542 79.2887 127.107C79.6021 126.718 79.7172 125.437 78.6647 125.214C76.9179 124.843 56.6866 125.113 55.6356 125.127L55.5931 125.128ZM129.401 117.743C129.284 119.009 128.912 119.007 127.425 119.001C127.124 118.999 126.778 118.999 126.378 119.007C121.617 119.113 110.44 119.141 105.879 118.985C104.974 118.954 103.96 118.426 104.242 117.566C104.562 116.578 105.449 116.583 106.21 116.588C106.272 116.589 106.332 116.589 106.392 116.589C111.691 116.58 115.791 116.533 118.958 116.496C128.358 116.387 129.529 116.374 129.401 117.743ZM128.982 66.7054C128.834 66.5127 128.629 66.3706 128.397 66.2987L128.288 66.2744C128.163 66.2464 128.057 66.2227 127.95 66.2028C127.37 66.0947 126.769 66.0989 122.907 66.1256C119.87 66.1467 114.818 66.1816 106.173 66.187C104.969 66.1879 103.985 66.3203 104.025 67.5433C104.047 68.2245 105.012 68.5578 105.72 68.582C110.039 68.7344 127.933 68.724 128.484 68.5119C128.71 68.4221 128.902 68.2645 129.034 68.0609C129.167 67.8572 129.233 67.6174 129.223 67.3747C129.214 67.1319 129.13 66.8981 128.982 66.7054ZM76.2319 66.4204C82.9571 66.3496 83.922 66.3394 84.3272 67.1141C84.4318 67.2934 84.4876 67.4969 84.489 67.7044C84.4903 67.912 84.4373 68.1162 84.3351 68.2968C84.2328 68.4775 84.085 68.6281 83.9064 68.7337C83.7278 68.8393 83.5246 68.8963 83.3171 68.8989C81.5303 68.9089 79.5191 68.9334 77.4428 68.9586H77.4396H77.439H77.4384C69.6149 69.0538 60.8701 69.1601 59.7313 68.5466C58.8242 68.0584 59.1843 66.632 60.5735 66.5091C60.8546 66.484 62.2801 66.4886 63.395 66.4923C64.1614 66.4948 64.781 66.4968 64.781 66.4883C69.7905 66.4883 73.49 66.4494 76.2319 66.4204ZM80.6124 93.1382C80.494 92.9676 80.3213 92.8413 80.1223 92.7807C78.8101 92.3176 57.0342 92.5773 56.4716 92.7313C56.2784 92.772 56.0999 92.8646 55.9551 92.9988C55.8103 93.133 55.7047 93.3035 55.6494 93.493C55.5942 93.6826 55.5913 93.8834 55.6413 94.0747C55.6913 94.266 55.7922 94.4391 55.9332 94.5776L55.9658 94.6018C56.0047 94.6304 56.0412 94.6572 56.0789 94.6832C56.6675 95.0814 57.5254 95.0805 71.7921 95.0744C73.8126 95.0736 76.1019 95.0727 78.6976 95.0727C79.9682 95.0727 80.8208 94.9939 80.7749 93.7233C80.7881 93.5156 80.7308 93.3095 80.6124 93.1382ZM61.2851 119.299C60.2222 119.292 59.1212 118.706 59.5254 117.712C59.865 116.896 60.7169 116.896 61.5385 116.897H61.5863C70.213 116.897 75.2826 116.852 78.3526 116.825C83.0516 116.784 83.0661 116.784 83.9802 117.049C84.2231 117.156 84.4222 117.343 84.5452 117.579C84.6683 117.815 84.708 118.085 84.6578 118.345C84.6076 118.607 84.4705 118.843 84.2689 119.016C84.0673 119.189 83.813 119.289 83.5474 119.299H61.2851ZM55.2921 101.925C55.383 102.139 55.5401 102.317 55.7402 102.435C56.5862 102.867 57.19 102.864 65.2688 102.82C68.5053 102.802 72.9418 102.779 79.0741 102.774C79.3579 102.804 79.6431 102.731 79.8782 102.569C80.1132 102.407 80.2826 102.167 80.3557 101.891C80.4289 101.615 80.401 101.322 80.277 101.065C80.1532 100.808 79.9414 100.604 79.68 100.489C78.0406 100.13 56.656 100.393 56.2232 100.419C55.9915 100.434 55.7704 100.521 55.5926 100.671C55.4147 100.82 55.2896 101.023 55.2355 101.249C55.1814 101.474 55.2012 101.712 55.2921 101.925ZM83.0696 85.7271C82.7684 85.7224 82.4799 85.605 82.261 85.398C82.0421 85.1912 81.9086 84.9098 81.8869 84.6093C81.8652 84.3089 81.9568 84.0112 82.1436 83.775C82.3305 83.5387 82.5991 83.381 82.8965 83.333L82.9326 83.3326H82.933C83.8364 83.3234 101.215 83.1464 104.677 83.4559C104.87 83.4732 105.057 83.5359 105.222 83.6389C105.386 83.7419 105.524 83.8823 105.624 84.0486C105.725 84.215 105.785 84.4027 105.798 84.5964C105.813 84.7901 105.781 84.9845 105.706 85.1636C105.327 85.9824 104.683 85.969 103.724 85.9493C103.568 85.946 103.402 85.9426 103.229 85.9426C102.784 85.943 102.329 85.9436 101.864 85.9442C97.3167 85.9501 91.778 85.9573 83.0696 85.7271ZM40.9564 85.7128C41.1713 85.8664 41.4309 85.9445 41.6948 85.9348C43.02 85.9746 55.6113 86.2836 62.9504 86.1451C64.9326 86.107 64.8019 83.7657 63.2672 83.6592C60.8419 83.493 41.8064 83.2896 41.0274 83.7224C40.8022 83.8603 40.6291 84.0689 40.535 84.3156C40.4409 84.5623 40.4313 84.8333 40.5076 85.0861C40.5838 85.3388 40.7416 85.5593 40.9564 85.7128ZM89.7491 111.41C69.893 111.41 69.8916 111.334 69.8684 110.071L69.8679 110.049C69.8687 109.847 69.9157 109.648 70.0053 109.468C70.095 109.287 70.2248 109.129 70.3848 109.007C70.545 108.885 70.7311 108.8 70.9288 108.761C71.1266 108.722 71.3307 108.728 71.5255 108.78C71.5383 108.784 72.198 108.779 73.284 108.77H73.2867C77.6525 108.736 88.8948 108.646 92.6894 108.913C92.9759 108.93 93.2477 109.049 93.4563 109.247C93.664 109.445 93.7956 109.711 93.8268 109.997C93.8588 110.282 93.7887 110.57 93.6285 110.809C93.4684 111.048 93.2295 111.222 92.9534 111.302C91.8879 111.397 90.8181 111.433 89.7491 111.41ZM115.559 126.361C115.673 125.178 114.382 124.91 113.195 124.918C110.909 124.935 108.495 124.92 106.24 124.906H106.229C101.497 124.877 97.4682 124.852 96.7965 125.126C96.6182 125.201 96.4641 125.326 96.3533 125.485C96.2425 125.644 96.1785 125.831 96.169 126.025C96.1603 126.219 96.2062 126.411 96.3023 126.58C96.3975 126.749 96.5394 126.887 96.71 126.979C97.74 127.485 105.029 127.41 110.32 127.356H110.324C111.152 127.347 111.931 127.339 112.629 127.334L112.853 127.332C114.432 127.324 115.468 127.318 115.559 126.361ZM113.209 74.7171C114.324 74.7085 115.613 75.0166 115.46 76.1211C115.303 77.2647 114.588 77.2521 113.31 77.2294C113.077 77.2253 112.825 77.2209 112.555 77.2229C112.326 77.2249 111.964 77.2301 111.5 77.2369C107.866 77.2895 97.9754 77.4328 96.6476 76.7988C96.465 76.7107 96.3127 76.5706 96.2097 76.3961C96.1067 76.2216 96.0582 76.0205 96.0694 75.8181C96.0798 75.6159 96.1508 75.4214 96.272 75.2592C96.394 75.0969 96.5602 74.9743 96.7515 74.9067C97.4613 74.6514 102.359 74.6791 107.175 74.7062C109.331 74.7184 111.469 74.7306 113.209 74.7171ZM109.506 94.8719C110.215 94.871 111.016 94.8693 111.945 94.8693C113.117 94.8702 114.106 94.8779 114.942 94.8849C119.037 94.9178 119.458 94.9212 119.705 93.8877C119.758 93.6177 119.714 93.3381 119.581 93.0975C119.448 92.8569 119.234 92.6708 118.977 92.5729C118.519 92.4223 118.037 92.3548 117.554 92.3739C117.178 92.3739 116.305 92.3669 115.149 92.3566H115.147H115.146C110.914 92.3211 102.879 92.2527 101.36 92.405C100.26 92.515 99.4244 94.6321 102.25 94.7568C104.991 94.8779 106.299 94.8762 109.506 94.8719ZM97.6101 101.091C97.9356 100.074 98.2074 100.077 104.568 100.136C106.982 100.159 110.274 100.19 114.779 100.176C116.098 100.176 117.155 100.509 116.907 101.763C116.72 102.711 115.918 102.697 114.941 102.68C114.809 102.678 114.673 102.676 114.535 102.676C112.155 102.677 110.071 102.691 108.255 102.704H108.254C99.6477 102.762 97.0683 102.781 97.6101 101.091ZM40.4789 67.6681C40.447 67.835 40.4489 68.0067 40.4847 68.1728C40.7629 69.2493 41.2732 69.2433 47.986 69.1653C49.9204 69.1429 52.3698 69.1144 55.4772 69.1041C56.9062 69.0998 57.4151 66.6295 55.0885 66.6607H41.4992C41.3318 66.6906 41.1723 66.7539 41.03 66.8467C40.8877 66.9397 40.7656 67.0603 40.6709 67.2014C40.5762 67.3425 40.5109 67.5013 40.4789 67.6681ZM42.086 119.515C40.1411 119.495 40.1818 117.155 42.073 117.063C42.0857 117.062 42.0959 117.063 42.1185 117.065C42.3131 117.079 43.4346 117.161 55.1872 117.017C56.0605 117.006 56.7045 117.14 56.8595 118.076C56.985 118.831 56.5288 119.505 55.4062 119.511C52.7238 119.526 45.5985 119.552 42.086 119.515ZM99.8667 119.141C101.569 119.109 101.493 117.286 100.494 117.032C98.8479 116.613 90.5619 116.813 88.8653 116.913C87.8215 116.977 87.3575 117.826 87.6233 118.448C88.0361 119.415 89.4236 119.381 95.3779 119.238H95.3787H95.3796H95.3822H95.3865C96.6598 119.208 98.1416 119.173 99.8667 119.141ZM91.9217 92.4881H91.9225C95.293 92.4526 97.5617 92.4293 97.3505 93.9128C97.341 94.0851 97.2951 94.253 97.2154 94.4062C97.1358 94.5586 97.025 94.6936 96.8891 94.8C96.7532 94.9065 96.5966 94.9827 96.4295 95.0234C96.2616 95.0649 96.0876 95.0692 95.918 95.0381C95.8193 95.0277 95.2922 95.0407 94.5097 95.0597H94.5088H94.508C91.6533 95.129 85.4127 95.2796 84.2675 94.7135C83.2773 94.2227 83.504 92.7608 85.2369 92.6188C87.0641 92.4648 90.2026 92.4795 90.2026 92.5002C90.8007 92.5002 91.3755 92.4942 91.9217 92.4881ZM88.8653 66.496C86.9455 66.6198 86.2635 69.0754 90.3316 69.0001C91.1556 68.9849 91.4499 68.9891 91.8282 68.9943C92.5795 69.0047 93.6614 69.0196 99.8667 68.8988C100.079 68.8935 100.286 68.8315 100.466 68.719C100.647 68.6067 100.794 68.4479 100.892 68.2595C100.989 68.0712 101.035 67.8599 101.024 67.6477C101.013 67.4356 100.945 67.2303 100.827 67.0534C100.571 66.5826 99.465 66.4146 98.9535 66.4095C96.2226 66.3774 91.1885 66.3471 88.8653 66.496ZM41.0629 76.8362C40.9115 76.7625 40.7788 76.6553 40.6748 76.523C40.5707 76.3905 40.4981 76.2362 40.4623 76.0717C40.4265 75.9072 40.4284 75.7367 40.4679 75.573C40.5076 75.4093 40.5836 75.2567 40.6907 75.1267C41.2196 74.4795 41.6069 74.4833 43.2968 74.5003C43.5842 74.5032 43.9094 74.5065 44.2793 74.507C45.8331 74.5094 47.0421 74.5073 47.9874 74.5057C50.9496 74.5006 51.324 74.4999 51.613 74.6568C51.6548 74.6795 51.6949 74.7055 51.7407 74.7352L51.7544 74.7441C51.9721 74.881 52.1413 75.0829 52.2379 75.3214C52.3345 75.5598 52.3538 75.8225 52.2927 76.0723C52.2318 76.3222 52.0937 76.5466 51.8981 76.7137C51.7025 76.8808 51.4594 76.9821 51.203 77.0033C50.3071 77.069 42.2444 77.327 41.0629 76.8362ZM89.698 74.4985C89.0791 74.5062 88.3425 74.5153 87.4614 74.5153L87.4597 74.5023C86.3992 74.5023 85.5785 74.4962 84.9352 74.4916C82.6283 74.4745 82.6035 74.4743 81.9781 74.8304C81.2147 75.2649 80.9126 77.1778 83.6703 77.183L83.672 77.1829L83.6741 77.1825C83.7102 77.1763 84.0905 77.1106 92.0099 77.0168C92.222 77.0323 92.4332 76.9929 92.6254 76.9021C92.8167 76.8114 92.982 76.6724 93.104 76.499C93.2261 76.3254 93.3014 76.1232 93.3221 75.9121C93.342 75.701 93.3083 75.4882 93.2217 75.2943C92.8331 74.4597 92.3311 74.4659 89.698 74.4985ZM42.7828 127.571C41.4593 127.702 40.1368 126.818 40.8154 125.633C41.2614 124.853 42.0519 124.87 43.4847 124.898H43.486C43.7766 124.904 44.0936 124.911 44.4395 124.911C46.0022 124.913 47.217 124.911 48.1663 124.91H48.1832C51.1338 124.904 51.5078 124.903 51.8042 125.054C51.8472 125.076 51.8887 125.101 51.9361 125.13L51.9595 125.144C52.1752 125.281 52.3429 125.482 52.4391 125.719C52.5354 125.955 52.5554 126.216 52.4964 126.465C52.4375 126.713 52.3024 126.938 52.1101 127.106C51.9179 127.273 51.6779 127.378 51.4237 127.403C50.8547 127.455 48.9537 127.472 47.0655 127.487H47.0649C45.1762 127.504 43.3004 127.52 42.7828 127.571ZM83.3785 124.899C81.2363 124.884 80.7576 127.325 83.7109 127.363L84.9842 127.371H85.0333L85.1027 127.372H85.1529H85.1933C87.6527 127.387 92.312 127.415 92.3484 127.414C92.6444 127.407 92.9283 127.292 93.1464 127.093C93.3645 126.892 93.5022 126.619 93.5342 126.325C93.5662 126.03 93.4892 125.734 93.3187 125.491C93.149 125.249 92.8963 125.077 92.608 125.007C92.2843 124.914 92.2004 124.915 90.3342 124.917H90.3333C89.0601 124.92 86.9557 124.923 83.3785 124.899ZM94.4093 101.495C94.4214 101.265 94.3712 101.036 94.2621 100.833C93.883 100.127 93.5697 100.129 90.2026 100.158C88.7996 100.17 86.8662 100.186 84.1775 100.158C83.9727 100.132 83.7647 100.149 83.5673 100.21C83.3699 100.27 83.1878 100.373 83.0332 100.509C82.8785 100.646 82.755 100.815 82.6708 101.004C82.5866 101.191 82.5437 101.397 82.5451 101.603C82.5952 102.917 84.4171 102.858 87.7895 102.746C89.2445 102.698 90.9886 102.641 93.0036 102.68C93.2321 102.707 93.4641 102.671 93.6736 102.575C93.883 102.479 94.0622 102.328 94.192 102.137C94.3219 101.947 94.3972 101.725 94.4093 101.495ZM78.9287 84.1398C79.0263 84.3326 79.072 84.5474 79.0614 84.7633C79.0507 84.9792 78.9842 85.1886 78.8681 85.3709C78.752 85.5532 78.5906 85.7022 78.3995 85.8032C78.2084 85.9042 77.9944 85.9538 77.7783 85.9471C76.2108 85.9682 74.8589 86.0021 73.6969 86.0313C68.7347 86.1557 67.2367 86.1932 67.2037 84.7829C67.2132 84.5846 67.2637 84.3905 67.3519 84.2127C67.4401 84.0349 67.5642 83.8774 67.7164 83.7499C67.8686 83.6225 68.0454 83.528 68.2359 83.4723C68.4264 83.4167 68.6264 83.4011 68.8232 83.4265C71.3068 83.4444 73.1459 83.4319 74.5178 83.4226C78.335 83.3968 78.5339 83.3954 78.9287 84.1398ZM66.9031 109.51C66.7513 109.262 66.5166 109.074 66.2404 108.981C66.0075 108.896 56.7823 108.755 55.9964 109.039C55.763 109.123 55.5613 109.276 55.4194 109.479C55.2776 109.683 55.2026 109.925 55.2051 110.172C55.2076 110.42 55.2873 110.662 55.4332 110.861C55.5791 111.061 55.7838 111.211 56.0189 111.29C56.8119 111.527 57.649 111.579 58.465 111.44C59.9988 111.519 61.5358 111.513 63.0689 111.421C63.5354 111.377 64.1969 111.388 64.7847 111.397H64.7859C65.2283 111.405 65.6288 111.411 65.8725 111.394C66.1639 111.388 66.4438 111.279 66.6628 111.086C66.8818 110.893 67.026 110.63 67.07 110.342C67.114 110.054 67.0549 109.76 66.9031 109.51ZM34.424 118.864C34.2699 118.452 34.2421 118.004 34.3441 117.577C34.4462 117.15 34.6734 116.763 34.9967 116.466C35.3201 116.168 35.7247 115.974 36.1591 115.909C36.5933 115.843 37.0373 115.908 37.4343 116.096C37.8313 116.283 38.1631 116.585 38.3874 116.964C38.6115 117.341 38.7179 117.777 38.6928 118.216C38.6677 118.654 38.5124 119.076 38.2465 119.425C37.9807 119.775 37.6166 120.037 37.2008 120.178C36.658 120.368 36.0623 120.337 35.5427 120.091C35.023 119.844 34.6211 119.404 34.424 118.864ZM38.6817 126.043C38.7232 128.819 34.3452 129.044 34.3123 126.066C34.2785 123.015 38.8167 123.139 38.6817 126.043ZM38.4775 75.5785C38.661 78.4149 34.1782 78.6642 34.1081 75.697C34.1052 75.1169 34.3264 74.5581 34.7255 74.1372C35.1247 73.7163 35.671 73.4658 36.2504 73.4379C36.5383 73.4277 36.8254 73.4755 37.0945 73.5783C37.3636 73.6811 37.6093 73.837 37.817 74.0367C38.0248 74.2364 38.1903 74.4757 38.3037 74.7406C38.4171 75.0054 38.4763 75.2903 38.4775 75.5785ZM34.0951 84.2381C34.0377 84.6846 34.1184 85.1381 34.3261 85.5375C34.5706 86.0065 34.9753 86.3722 35.4666 86.5681C35.958 86.764 36.5033 86.777 37.0033 86.6047C37.4289 86.4578 37.7994 86.1842 38.065 85.8207C38.3306 85.4571 38.4786 85.021 38.4892 84.5709C38.4997 84.1208 38.3723 83.6782 38.1241 83.3027C37.8759 82.927 37.5187 82.6364 37.1004 82.4696C36.6822 82.3029 36.223 82.2681 35.7844 82.37C35.3459 82.4718 34.949 82.7053 34.647 83.0393C34.345 83.3732 34.1524 83.7915 34.0951 84.2381ZM34.3331 68.717C33.1576 66.2355 36.6311 64.1564 38.1528 66.509C38.3092 66.7603 38.4135 67.0404 38.4595 67.3327C38.5054 67.625 38.4922 67.9236 38.4204 68.2107C38.3487 68.4978 38.2199 68.7675 38.0418 69.0039C37.8637 69.2402 37.6399 69.4383 37.3837 69.5864C37.1275 69.7345 36.8442 69.8296 36.5505 69.866C36.2568 69.9024 35.9588 69.8793 35.6742 69.7982C35.3896 69.7171 35.1242 69.5796 34.8938 69.3938C34.6634 69.2082 34.4728 68.978 34.3331 68.717ZM32.0575 148.734C29.4704 148.859 26.8786 148.849 24.2925 148.705C24.1652 148.688 24.0431 148.643 23.9351 148.574C23.8272 148.505 23.736 148.411 23.6684 148.302C23.6007 148.193 23.5581 148.07 23.5437 147.943C23.5293 147.815 23.5436 147.686 23.5853 147.565C24.4691 145.893 28.4204 140.821 29.7516 140.719C40.9356 139.86 75.3271 140.2 75.5183 140.208C86.3945 140.686 94.6759 140.706 104.458 140.729C113.359 140.749 123.502 140.774 137.971 141.149C139.962 141.201 141.101 141.386 142.266 142.306L142.285 142.32C142.524 142.51 144.171 143.818 144.356 143.993C145.346 144.927 146.215 145.713 146.945 146.374C148.76 148.014 149.719 148.881 149.553 149.339C149.366 149.853 147.761 149.852 144.358 149.849H144.354C144.072 149.848 143.778 149.848 143.47 149.848C143.47 149.827 63.5121 148.277 32.0575 148.734ZM69.7597 144.651C68.934 144.651 68.9072 144.663 69.0361 145.479C69.0534 145.527 69.0678 145.577 69.0794 145.627C69.0843 145.757 69.0889 145.875 69.0933 145.983C69.1299 146.897 69.1384 147.11 68.9063 147.247C68.5921 147.428 68.2666 146.8 68.1948 146.583C67.9164 145.74 67.8905 145.249 67.8752 144.961C67.8578 144.631 67.8545 144.57 67.5023 144.556C67.1087 144.54 66.8267 144.527 66.5882 144.515C65.4337 144.459 65.3018 144.453 58.4728 144.444C58.4475 144.444 58.4239 144.443 58.4018 144.443C58.3185 144.441 58.2562 144.44 58.2042 144.463C58.0519 144.528 57.9872 144.797 57.7327 145.852C57.667 146.125 57.5887 146.449 57.493 146.837C57.3199 147.538 56.4629 146.55 56.9459 144.874C57.068 144.45 57.0604 144.451 56.0986 144.521H56.098C55.5312 144.561 54.6335 144.627 53.2361 144.644C51.5453 144.663 50.3449 144.656 49.4873 144.65H49.4868C47.3736 144.638 47.3423 144.637 47.1841 145.095C46.9314 145.826 46.7253 146.334 46.5824 146.686C46.3963 147.145 46.3171 147.34 46.3815 147.42C46.4291 147.48 46.5553 147.477 46.7749 147.471L46.8283 147.47C53.5908 147.299 60.1342 147.419 65.8793 147.524H65.8801C70.6244 147.612 74.8244 147.689 78.154 147.584C78.4144 147.575 78.3943 147.488 78.311 147.129C78.2678 146.942 78.2076 146.682 78.1609 146.322C78.1014 145.864 78.0826 145.541 78.0693 145.314C78.0422 144.848 78.0383 144.78 77.7532 144.764C76.0876 144.657 73.2802 144.655 71.0204 144.653H71.0179C70.573 144.653 70.1493 144.652 69.7597 144.651ZM136.352 148.591C136.656 148.622 137.007 148.613 136.849 148.351C136.632 147.991 136.468 147.692 136.332 147.444C136.078 146.978 135.92 146.689 135.681 146.505C135.292 146.207 134.686 146.189 133.092 146.142C131.941 146.108 130.275 146.06 127.802 145.879L127.667 145.868C127.564 145.861 127.47 145.854 127.382 145.847L127.373 145.846C126.769 145.798 126.535 145.78 126.485 145.867C126.453 145.923 126.496 146.021 126.566 146.181C126.669 146.417 126.83 146.788 126.9 147.355C126.903 147.385 126.909 147.417 126.916 147.45C126.946 147.604 126.98 147.782 126.789 147.864C126.38 148.042 125.872 147.222 125.555 146.711L125.502 146.625L125.465 146.566C125.339 146.368 125.267 146.202 125.208 146.069C125.106 145.835 125.048 145.704 124.83 145.688C121.582 145.381 118.321 145.241 115.058 145.269C114.446 145.263 114.45 145.272 114.654 145.845C114.788 146.219 115.009 146.835 115.199 147.847C115.251 148.12 115.301 148.12 116.385 148.108C116.675 148.104 117.039 148.1 117.496 148.1C117.496 148.079 136.331 148.588 136.352 148.591ZM27.7799 144.771C26.9732 144.184 35.0852 143.802 36.1005 143.819C36.4988 143.826 36.5739 143.686 37.1345 142.648L37.1354 142.647C37.2679 142.402 37.4275 142.107 37.6248 141.751C37.6765 141.682 37.7114 141.602 37.7269 141.518C37.7238 141.482 37.7117 141.447 37.6917 141.417C37.6718 141.386 37.6446 141.362 37.6127 141.345C37.4231 141.298 34.8983 141.386 34.5598 141.409C32.849 141.527 31.7182 141.526 30.9534 141.526C29.7447 141.525 29.4497 141.524 29.2228 141.993C29.2027 142.036 29.1854 142.055 29.1151 142.129C28.8831 142.376 28.074 143.235 24.6812 147.619C27.0857 147.798 28.0065 147.752 29.4181 147.682C30.5874 147.624 32.0935 147.549 35.0584 147.571C35.2389 147.571 35.2424 147.46 35.2506 147.205C35.2552 147.058 35.2615 146.863 35.3042 146.613C35.4051 146.022 35.6169 145.587 35.7615 145.29C35.9344 144.935 36.0115 144.777 35.6885 144.783C35.5634 144.785 35.2497 144.802 34.8154 144.825C32.8327 144.932 28.3358 145.172 27.7799 144.771ZM137.555 146.426L137.482 146.425C137.131 146.421 137.036 146.421 137.159 146.666C137.209 146.767 137.256 146.863 137.302 146.955L137.417 147.188L137.578 147.515C138.111 148.596 138.116 148.606 138.312 148.62C141.536 148.822 144.767 148.86 147.994 148.734C147.864 148.471 147.439 148.112 146.839 147.606C146.396 147.232 145.858 146.778 145.275 146.224C144.193 145.195 143.456 144.434 142.911 143.872C142.088 143.024 141.705 142.629 141.239 142.444C140.833 142.284 140.364 142.283 139.485 142.281C139.223 142.281 138.923 142.28 138.577 142.275L138.057 142.267C135.344 142.227 134.631 142.217 134.578 142.397C134.56 142.461 134.625 142.551 134.713 142.671C134.754 142.726 134.8 142.788 134.844 142.857C135.177 143.373 135.434 143.783 135.637 144.11C136.357 145.265 136.426 145.376 136.917 145.384C137.66 145.396 142.139 145.503 142.204 145.511L142.377 145.532C143.457 145.661 144.022 145.729 144.332 146.134C144.656 146.556 143.673 146.532 141.403 146.478C140.397 146.453 139.136 146.423 137.626 146.423V146.426H137.555ZM113.298 145.552C113.453 145.998 113.823 147.012 114.267 148.064C113.764 148.082 102.147 147.991 102.25 147.623C102.362 147.216 102.196 146.618 102.047 146.086C101.854 145.396 101.692 144.814 102.206 144.897C103.048 144.975 103.894 145.004 104.739 144.984C108.259 145.14 110.296 145.159 111.489 145.171C112.768 145.183 113.076 145.185 113.202 145.339C113.242 145.387 113.264 145.451 113.292 145.535L113.298 145.552ZM90.4251 144.772C90.181 144.771 90.0408 144.771 89.9715 144.841C89.8781 144.936 89.9161 145.159 90.0044 145.686C90.0624 146.034 90.1438 146.515 90.2234 147.178L90.2303 147.232C90.2442 147.353 90.2528 147.432 90.2953 147.483C90.3783 147.584 90.587 147.581 91.2032 147.574H91.2041C91.5875 147.569 92.1303 147.562 92.898 147.577C95.1407 147.619 96.8303 147.679 98.1381 147.725C99.9203 147.788 100.994 147.826 101.797 147.76C101.148 146.869 100.962 146.14 100.833 145.639C100.711 145.163 100.641 144.89 100.279 144.878C99.8173 144.858 99.4858 144.842 99.2123 144.828H99.2097H99.2088C98.9881 144.817 98.8055 144.808 98.6229 144.8C97.7443 144.765 96.864 144.765 91.752 144.766H91.7503H90.4831V144.772H90.4251ZM89.0229 147.567C89.3691 147.567 89.3674 147.56 89.061 146.304C88.9839 145.99 88.8879 145.597 88.7736 145.107C88.6905 144.75 88.6671 144.753 88.2274 144.798C87.998 144.822 87.6544 144.857 87.129 144.859C84.0593 144.871 82.1742 144.816 81.0189 144.781C79.6941 144.742 79.3292 144.732 79.2381 144.884C79.2035 144.942 79.2085 145.024 79.2153 145.137L79.216 145.148C79.3003 145.833 79.331 146.524 79.3078 147.213C79.3078 147.391 79.3078 147.483 79.3544 147.533C79.4059 147.586 79.5146 147.586 79.7435 147.586H79.8315C80.1803 147.58 88.3451 147.561 89.0229 147.561V147.567ZM44.9535 147.567H45.0013C45.3363 147.567 45.6166 147.567 45.6546 147.248C45.783 146.163 45.9856 145.535 46.1027 145.172C46.2587 144.689 46.2623 144.677 45.7334 144.688C44.9781 144.703 44.2226 144.693 43.4674 144.683C42.2018 144.665 40.937 144.649 39.6745 144.753C39.0359 144.8 38.3949 144.807 37.7555 144.772C37.2449 144.747 37.1186 145.024 36.8591 145.596C36.6673 146.018 36.4028 146.601 35.8565 147.34C35.648 147.612 35.7694 147.611 38.9818 147.585C40.3453 147.574 42.2654 147.558 44.9535 147.557V147.567ZM113.981 141.875C113.889 141.875 113.806 141.872 113.731 141.87C113.401 141.863 113.255 141.858 113.334 142.068C113.539 142.608 113.681 143.007 113.787 143.303C113.994 143.888 114.058 144.066 114.179 144.123C114.232 144.148 114.296 144.15 114.387 144.153L114.399 144.154C115.913 144.199 117.078 144.232 117.99 144.258C120.309 144.323 121.008 144.343 121.705 144.398C122.005 144.42 122.306 144.451 122.736 144.493C123.122 144.531 123.613 144.58 124.302 144.643C124.436 144.655 124.492 144.563 124.437 144.406L124.42 144.354C124.262 143.891 123.644 142.08 123.297 142.062C121.532 141.963 120.042 141.966 118.597 141.969C117.097 141.972 115.646 141.975 113.981 141.865V141.875ZM107.433 141.875C107.433 141.872 107.433 141.869 107.432 141.867C107.422 141.831 107.275 141.835 105.021 141.88C104.135 141.898 102.923 141.922 101.266 141.953H101.222C101.026 141.953 100.938 141.952 101.014 142.157C101.239 142.77 101.342 143.157 101.409 143.402C101.522 143.822 101.523 143.83 101.821 143.846C108.014 144.169 109.415 144.162 111.351 144.153C111.7 144.151 112.066 144.149 112.481 144.149H112.495C112.618 144.149 112.7 144.149 112.742 144.109C112.826 144.028 112.758 143.789 112.557 143.077C112.488 142.837 112.406 142.545 112.308 142.186L112.3 142.158C112.282 142.089 112.268 142.036 112.237 141.993C112.121 141.832 111.778 141.836 110.135 141.85C109.47 141.857 108.593 141.865 107.433 141.865V141.875ZM125.783 142.104L125.782 142.101C125.782 142.099 125.781 142.098 125.781 142.096C125.769 142.069 125.692 142.071 125.179 142.08L125.107 142.081C124.732 142.087 124.755 142.133 125.062 142.747C125.234 143.092 125.496 143.618 125.827 144.418C125.97 144.762 126.085 144.768 127.081 144.825C127.286 144.837 127.529 144.85 127.817 144.87L128.313 144.904H128.314H128.315C130.212 145.033 130.776 145.071 131.34 145.097C131.578 145.108 131.816 145.117 132.156 145.129H132.157H132.159C132.545 145.143 133.062 145.162 133.857 145.195C134.036 145.202 134.191 145.215 134.326 145.226C134.624 145.251 134.81 145.266 134.867 145.188C134.961 145.062 134.723 144.69 134.101 143.72C133.902 143.408 133.662 143.034 133.38 142.585L133.361 142.553C133.338 142.515 133.317 142.481 133.293 142.45C133.094 142.209 132.609 142.202 128.269 142.14H128.261H128.26C127.544 142.13 126.723 142.119 125.783 142.104V142.114V142.109V142.104ZM57.0238 143.412C57.3055 143.4 57.3244 143.341 57.5581 142.606C57.621 142.408 57.6996 142.161 57.8028 141.854C57.8316 141.769 57.8596 141.696 57.8833 141.635C58.0029 141.326 58.0152 141.294 57.4722 141.32C57.2649 141.329 56.517 141.314 55.5289 141.293H55.525H55.5245C53.2449 141.244 49.6906 141.169 48.5404 141.32C48.358 141.344 48.3479 141.386 48.2306 141.867L48.2306 141.868C48.1837 142.06 48.1199 142.322 48.0211 142.682C47.9786 142.836 47.9329 142.97 47.8938 143.084C47.7657 143.458 47.7086 143.624 48.0687 143.626C51.3237 143.635 52.2125 143.6 56.2844 143.435L57.0238 143.406V143.412ZM45.7844 143.68C46.5701 143.648 46.6282 143.646 46.7453 143.376C46.9539 142.894 47.1212 142.526 47.249 142.245C47.5158 141.658 47.6102 141.451 47.5472 141.376C47.5126 141.335 47.4306 141.335 47.3037 141.333C47.2837 141.333 47.2626 141.332 47.2404 141.332C45.979 141.309 44.9814 141.279 44.1377 141.254H44.137C42.0795 141.193 40.9365 141.159 39.111 141.322C38.8513 141.345 38.8482 141.353 38.4628 142.262L38.4626 142.263C38.3663 142.491 38.2462 142.774 38.0922 143.129L38.0633 143.195C37.8623 143.654 37.8328 143.722 37.9883 143.728C38.164 143.733 38.5916 143.717 39.1654 143.696C40.7315 143.638 43.3876 143.54 44.9934 143.711L44.9925 143.717C45.3157 143.699 45.5738 143.689 45.7814 143.68H45.7844ZM69.2491 141.332C68.7074 141.332 68.7105 141.351 68.7683 141.713C68.7836 141.807 68.8024 141.925 68.8163 142.073C68.8358 142.288 68.8512 142.473 68.8642 142.629L68.8644 142.631C68.9383 143.517 68.9388 143.522 69.2196 143.532C69.4705 143.541 69.673 143.549 69.8416 143.556H69.8567H69.8597C70.2493 143.57 70.4546 143.578 70.66 143.583C70.8887 143.588 71.1174 143.589 71.6004 143.592H71.6022C72.4144 143.596 73.9446 143.605 77.3966 143.643C77.4519 143.643 77.5046 143.645 77.5541 143.646C77.8416 143.654 78.0261 143.659 78.0475 143.356C78.0769 142.947 78.1053 142.631 78.1272 142.387C78.1972 141.608 78.2016 141.56 77.961 141.548C77.7749 141.539 77.6115 141.525 77.4217 141.509H77.4209H77.4195C76.5876 141.44 75.2426 141.328 69.2499 141.326L69.2491 141.332ZM94.5235 141.875V141.873C94.5235 141.872 94.5227 141.87 94.5209 141.869L94.5201 141.869C95.6306 141.869 96.5109 141.864 97.2094 141.861C99.4434 141.85 99.8243 141.849 99.9324 142.019C99.9541 142.055 99.9653 142.097 99.9775 142.148L99.9827 142.167C100.022 142.328 100.065 142.488 100.106 142.642C100.292 143.336 100.441 143.894 100.035 143.812C99.2919 143.665 96.1447 143.661 93.3992 143.659C92.0679 143.658 90.8302 143.656 90.0079 143.639C89.6729 143.631 89.6695 143.617 89.4383 142.648C89.4003 142.489 89.3561 142.303 89.3033 142.088C89.2445 141.849 89.3769 141.85 89.917 141.859H89.9179C90.0321 141.861 90.1646 141.863 90.3178 141.863C91.4638 141.863 92.2973 141.862 92.9041 141.861C94.3314 141.86 94.501 141.859 94.5209 141.869L94.5235 141.875ZM67.3154 143.476C67.6317 143.521 67.7712 143.542 67.7767 143.16C67.7368 142.609 67.8048 142.056 67.9767 141.53C68.0243 141.415 67.9516 141.333 67.8183 141.332C61.2124 141.325 59.7437 141.284 59.3643 141.273C59.2494 141.27 59.2344 141.27 59.2068 141.274C58.9639 141.311 58.9529 141.355 58.7148 142.305C58.6652 142.502 58.6058 142.739 58.5325 143.023C58.5259 143.047 58.5168 143.069 58.5083 143.09C58.4938 143.125 58.4813 143.155 58.4869 143.181C58.523 143.348 59.3008 143.356 65.0479 143.409H65.0483C65.5966 143.414 66.1901 143.421 66.8324 143.427L66.8393 143.433C67.0291 143.434 67.1869 143.457 67.3154 143.476ZM88.3858 143.643C88.4118 143.644 88.4378 143.639 88.4611 143.628C88.4854 143.617 88.5061 143.601 88.5217 143.58C88.5373 143.559 88.5485 143.535 88.5529 143.51C88.5581 143.484 88.5563 143.458 88.5486 143.433C88.5096 143.152 88.4793 142.923 88.4551 142.734C88.3737 142.116 88.3512 141.94 88.2603 141.892C88.224 141.873 88.1781 141.874 88.1132 141.874C88.0985 141.875 88.0837 141.875 88.0682 141.875C85.7456 141.815 84.0135 141.765 82.723 141.727H82.7179C79.4901 141.633 79.0283 141.62 78.9951 141.733C78.9896 141.752 78.996 141.774 79.0034 141.8C79.0086 141.818 79.0144 141.838 79.017 141.86C79.0588 142.195 79.0897 142.47 79.1151 142.697C79.1921 143.382 79.2187 143.62 79.3434 143.696C79.4097 143.736 79.5037 143.729 79.6475 143.719H79.654C80.1695 143.681 81.4162 143.693 82.84 143.706C84.8586 143.725 87.2338 143.748 88.385 143.637L88.3858 143.643ZM82.2871 56.5353C82.5203 56.5546 82.7374 56.6625 82.8936 56.8368C83.05 57.0112 83.1337 57.2386 83.1275 57.4727C83.1043 57.7038 83.0027 57.92 82.8395 58.0853C82.6764 58.2506 82.4616 58.3552 82.2308 58.3815C81.9985 58.3569 81.784 58.2454 81.6304 58.0694C81.4768 57.8933 81.3954 57.6658 81.4025 57.4322C81.4096 57.1987 81.5048 56.9765 81.6688 56.8102C81.8328 56.6438 82.0537 56.5456 82.2871 56.5353ZM77.8909 55.5078C79.8982 55.5078 79.9146 58.7103 77.7369 58.7225C75.6716 58.7337 75.7011 55.5078 77.8909 55.5078Z" fill="url(#paint0_linear_262_138)"/>
<path d="M41.9127 12.1724C43.7243 12.6121 43.5867 14.7241 44.2921 24.685C44.6402 28.732 44.7651 32.795 44.666 36.8557C44.3025 41.7574 44.872 43.7932 43.0319 44.136C41.5993 44.4026 30.8118 44.7583 29.9324 44.7912C23.67 45.0284 23.7324 45.2188 21.7095 45.095C19.8425 44.9799 7.74629 45.2327 7.1127 43.8348C6.57187 42.9686 6.33296 41.9478 6.43323 40.9317C6.43323 40.9109 4.91071 22.4467 6.64876 13.4067C6.6625 13.2617 6.70849 13.1217 6.78337 12.9967C6.85826 12.8718 6.96014 12.7652 7.08154 12.6848C7.22522 12.5983 7.2434 12.1136 8.67418 12.0218C8.70274 12.0244 36.6475 10.8923 41.9127 12.1724ZM8.00683 41.9755C8.00253 42.0572 8.0151 42.1388 8.04377 42.2154C8.07244 42.2919 8.11657 42.3618 8.17343 42.4204C8.23029 42.4791 8.29865 42.5255 8.37423 42.5567C8.44982 42.5878 8.53101 42.603 8.61272 42.6013C13.8841 42.9773 19.1726 43.0536 24.4525 42.8299C25.879 42.7658 34.7969 42.7623 37.3962 42.5243C39.0407 42.3737 41.0895 42.4378 42.4208 42.404C43.0717 42.3893 42.7514 41.9652 42.741 41.2017C42.7272 40.1977 42.0191 14.8998 42.0079 14.7025C41.9767 14.1338 41.8521 13.8369 41.4453 13.8049C35.0107 13.2336 14.4743 13.7252 14.4535 13.7278C7.97134 14.3502 8.06049 13.3098 8.01722 14.6575C7.97394 15.8017 8.00423 41.7237 8.00683 41.9755Z" fill="url(#paint1_linear_262_138)"/>
<path d="M35.4434 35.6033C35.5327 36.5847 35.2674 37.5656 34.6957 38.3682C34.1241 39.1708 33.2839 39.7422 32.3274 39.9787C30.5097 40.2549 29.2339 38.9894 29.7117 38.0243C30.0968 37.2453 30.6015 37.5119 31.5042 37.7724C32.3819 38.026 33.038 37.08 33.1904 36.1755C33.5175 34.2435 31.4592 30.802 33.4293 28.3516C33.9919 27.6531 30.9252 26.2154 32.2945 22.1048C32.6122 21.1527 32.3196 22.1126 33.0735 19.7107C33.3332 18.8789 32.2079 17.7199 30.7365 18.0306C29.9133 18.2037 29.4035 17.6247 29.6978 16.9703C30.4621 15.2868 34.3935 15.8944 35.0782 18.7335C35.3378 19.8215 35.0158 20.5408 34.2749 22.9886C33.4457 25.7298 36.4215 27.6012 36.5124 27.7154C37.0317 28.3698 37.0049 28.5568 36.3696 28.9921C35.1578 29.8213 34.2463 29.7054 35.0903 33.2801C35.3104 34.0355 35.4291 34.8167 35.4434 35.6033Z" fill="url(#paint2_linear_262_138)"/>
<path d="M15.1295 36.9655C14.6439 33.936 16.6658 30.7637 15.0897 29.7181C13.9168 28.9391 12.9907 28.766 13.9852 27.755C14.9347 27.1219 15.6779 26.2246 16.1231 25.1739C16.6156 23.8842 16.1465 22.9546 15.5172 20.9396C14.392 17.325 18.307 15.0684 20.4233 16.6282C21.0413 17.0843 21.0179 18.3316 19.7992 18.136C19.4489 18.0404 19.08 18.0364 18.7276 18.1241C18.3753 18.2118 18.0514 18.3885 17.7868 18.6372C16.0617 19.9355 20.3982 23.1009 17.3687 27.4659C16.9541 28.0623 16.7299 28.0718 16.9359 28.3523C19.4677 31.7184 15.7934 35.6697 17.843 37.5272C18.5476 38.166 18.7804 37.8683 19.8078 37.6415C20.9539 37.3896 21.3122 39.1995 19.8433 39.8418C17.65 40.8069 15.4489 38.9641 15.1295 36.9655Z" fill="url(#paint3_linear_262_138)"/>
<path d="M66.8419 43.307C65.4379 42.721 65.6111 39.347 65.4795 37.5873C65.4224 36.8247 65.2822 36.1072 65.2761 35.6995C65.0943 23.9971 64.4893 24.5692 69.9363 24.107C80.5401 23.4197 91.1738 23.3136 101.789 23.7893C105.242 23.985 105.424 23.7166 105.903 27.6844C106.17 32.1335 106.206 36.5934 106.011 41.0461C105.958 41.745 105.806 42.4327 105.562 43.0897C105.412 43.5225 105.009 43.6021 104.649 43.6428C102.874 43.8462 70.8296 44.9714 66.8419 43.307ZM66.545 26.0156C66.6264 26.6275 67.0349 40.673 67.0592 41.9108C67.0739 42.6803 67.0237 42.6967 81.1254 42.5323C105.819 42.2449 104.914 43.0248 104.877 42.3012C104.525 35.3767 104.681 35.9826 104.445 25.5663C104.432 25.0029 104.561 25.0072 103.879 25.0158C63.9665 25.511 66.4931 25.6243 66.545 26.0156Z" fill="url(#paint4_linear_262_138)"/>
<path d="M77.1065 36.5754C77.2415 36.3243 77.4658 36.1329 77.735 36.0392C78.0043 35.9453 78.2989 35.9559 78.5607 36.0688C78.8225 36.1816 79.0325 36.3886 79.1492 36.6487C79.2657 36.9089 79.2806 37.2033 79.1908 37.4738C76.3725 41.9324 69.6696 40.3787 69.3536 34.3145C69.2571 32.9435 69.6394 31.5813 70.4351 30.4606C71.2308 29.3399 72.3907 28.53 73.717 28.169C74.6319 27.9544 75.5909 28.0276 76.4627 28.3787C77.3345 28.7297 78.0766 29.3415 78.5875 30.1304C78.6463 30.268 78.6731 30.4172 78.6656 30.5666C78.658 30.7161 78.6165 30.8619 78.5441 30.9928C78.4718 31.1238 78.3705 31.2365 78.2479 31.3225C78.1254 31.4083 77.9849 31.4651 77.837 31.4885C76.6616 31.6711 76.9343 30.7294 75.3408 30.2429C74.9847 30.1391 74.6113 30.1086 74.2431 30.1533C73.8748 30.1981 73.5195 30.3172 73.1987 30.5033C72.8779 30.6895 72.5982 30.9388 72.3766 31.2362C72.155 31.5337 71.9962 31.873 71.9097 32.2337C70.4676 36.9285 74.5436 39.7719 77.1065 36.5754Z" fill="url(#paint5_linear_262_138)"/>
<path d="M86.0038 38.8501C84.9201 38.8397 85.1824 37.5336 84.9348 35.3835C84.8924 35.0191 84.8829 35.0208 84.5107 35.0174C82.6532 34.9975 81.135 35.1732 81.4077 33.8999C81.4276 33.7451 81.4939 33.5999 81.5978 33.4834C81.7018 33.3669 81.8385 33.2846 81.9902 33.2473C84.8465 32.5064 84.9219 33.4014 84.9262 32.3757C84.9357 30.3044 84.8465 30.6186 85.1426 29.6102C85.4022 28.7264 86.7871 28.9264 86.8936 30.1468C87.1818 33.5459 86.4089 32.657 89.3638 32.9417C89.6858 32.99 90.0018 33.0722 90.3064 33.1867C90.9011 33.6004 90.7782 34.9066 89.0946 34.9048C88.5104 34.9048 87.9261 34.9706 87.3419 34.9966C87.1592 35.0044 87.1177 35.0831 87.1108 35.2563C87.0441 37.0082 87.1324 39.031 86.0038 38.8501Z" fill="url(#paint6_linear_262_138)"/>
<path d="M92.7231 33.9417C92.7101 33.8476 92.7162 33.7518 92.7404 33.6599C92.7647 33.5682 92.8079 33.4822 92.8659 33.4072C92.9239 33.3322 92.9975 33.2697 93.0797 33.2234C93.1628 33.1771 93.2546 33.1479 93.3489 33.1376C94.1063 32.9066 94.8948 32.7985 95.6859 32.8173C96.8709 32.8692 95.7725 31.519 96.4926 29.4001C96.7116 28.7578 98.1684 28.6929 98.2238 30.2007C98.3726 34.0421 97.8637 32.1179 101.567 33.0476C101.948 33.1436 102.15 34.1546 101.514 34.5034C100.574 35.0228 99.8692 34.6367 98.673 34.886C97.9433 35.0384 99.0781 39.0407 97.121 38.7421C96.0694 38.582 96.4788 35.2089 96.1689 34.9509C96.0728 34.8713 95.8738 34.9163 95.7197 34.9094C93.3887 34.7951 92.7127 34.9968 92.7231 33.9417Z" fill="url(#paint7_linear_262_138)"/>
<path d="M154.885 35.9571C128.996 35.9571 128.848 36.7162 128.251 32.9276C127.565 28.5712 127.77 30.7109 127.623 20.55C127.671 19.3847 127.81 18.2249 128.037 17.0809C128.066 16.9141 128.138 16.758 128.248 16.6293C128.358 16.5005 128.501 16.4039 128.661 16.3495C130.825 15.5704 167.131 14.4192 168.064 16.1019C169.157 18.0728 169.005 23.4592 169.125 24.6364C169.334 27.9401 169.218 31.2566 168.778 34.5376C168.603 35.7468 168.38 35.9562 154.885 35.9571ZM129.341 17.434C128.767 17.4427 129.039 17.5361 129.075 18.5921C129.605 34.4138 129.216 34.3229 129.936 34.3973C134.956 34.9167 142.085 34.2242 166.03 34.5081C167.667 34.5272 167.632 34.7799 167.661 34.2917C167.762 32.5606 167.427 17.3509 167.426 17.3267C167.368 16.713 167.368 16.7043 166.763 16.713C129.341 17.2678 131.204 17.408 129.341 17.4366V17.434Z" fill="url(#paint8_linear_262_138)"/>
<path d="M143.135 20.197C144.624 19.6111 145.897 21.0626 143.36 22.4562C137.85 25.4787 135.079 26.2534 135.94 26.5823C142.263 28.9964 142.358 28.4519 143.722 29.192C143.937 29.2962 144.115 29.4621 144.235 29.6686C144.354 29.8749 144.408 30.1123 144.392 30.3502C144.376 30.5881 144.288 30.8155 144.142 31.0034C143.995 31.1913 143.795 31.3309 143.568 31.4044C141.732 32.1037 134.263 29.1046 132.851 28.0503C129.234 25.348 138.755 21.9221 143.135 20.197Z" fill="url(#paint9_linear_262_138)"/>
<path d="M154.592 20.0474C156.725 20.0171 163.224 24.3683 164.175 25.4676C164.364 25.6706 164.487 25.9269 164.525 26.2016C164.564 26.4765 164.517 26.7565 164.392 27.0039C163.728 28.5403 158.238 30.7259 156.709 31.1742C154.103 31.9377 153.524 32.1263 152.381 31.5793C151.986 31.3898 151.634 30.6809 152.489 29.8993C153.542 28.9359 154.777 29.1202 158.021 27.7587C161.542 26.2803 161.501 26.3046 160.902 25.9203C158.248 24.2203 155.766 22.6744 154.122 21.5924C153.244 21.0168 153.244 20.0673 154.592 20.0474Z" fill="url(#paint10_linear_262_138)"/>
<path d="M150.713 18.2425C151.177 17.827 151.616 18.4485 151.647 19.0215C151.721 20.3605 148.289 31.2952 147.107 32.9182C147.026 33.0264 146.913 33.1068 146.784 33.1479C146.655 33.189 146.517 33.189 146.388 33.1478C146.259 33.1066 146.146 33.0263 146.064 32.9179C145.983 32.8096 145.938 32.6787 145.934 32.5434C145.67 30.6789 149.313 19.4976 150.713 18.2425Z" fill="url(#paint11_linear_262_138)"/>
<path d="M36.8431 113.284C23.7558 113.452 6.72149 114.15 6.22465 111.899C4.59826 110.11 4.77656 97.7178 4.77916 95.3012C4.81833 94.2218 4.92878 93.1468 5.10981 92.0821C5.36947 90.0688 5.58154 89.9935 22.3744 89.6586C37.5373 89.3591 40.1037 88.8744 49.4163 89.7754C50.8306 89.9122 51.1405 89.817 51.4686 90.3077C53.0967 92.7374 53.1131 107.907 52.2069 111.981C51.9308 113.223 49.4934 112.898 48.4079 113.082C46.9789 113.324 37.134 113.281 36.8431 113.284ZM50.7268 91.6935C50.7121 91.0469 50.7727 91.0236 50.0759 91.0322C34.9692 91.2114 16.3587 91.4079 6.68167 91.8614C6.14329 91.8874 6.42719 92.2154 6.44018 93.0784C6.44018 93.0992 6.74832 105.561 6.83574 106.798C7.18197 111.681 6.25754 111.508 8.69497 111.601C16.3518 111.897 36.2069 111.159 50.7181 111.706C51.3188 111.729 51.1873 112.312 50.7268 91.6935Z" fill="url(#paint12_linear_262_138)"/>
<path d="M40.1141 101.771C40.2006 103.843 40.1645 105.917 40.0059 107.984C39.9193 108.763 38.7768 109.18 38.0783 108.88C37.2127 108.51 37.4248 108.228 37.4317 104.397C37.4412 98.7314 37.5988 100.943 36.2312 102.554C36.0969 102.699 35.9339 102.816 35.7523 102.895C35.5707 102.974 35.3746 103.015 35.1765 103.014C34.9783 103.014 34.7824 102.972 34.6013 102.892C34.4202 102.812 34.2578 102.694 34.1244 102.548C33.5254 101.839 32.6798 100.682 32.5776 100.63C32.4218 101.028 32.659 106.008 32.6296 107.308C32.6053 108.383 31.9908 108.811 31.3044 108.656C30.0008 108.361 30.0571 107.47 29.9576 106.223C29.9299 105.888 30.0251 105.391 30.0277 104.936C30.045 101.639 29.8372 98.6751 30.1549 95.5227C30.2501 94.5706 31.4983 94.3248 32.3188 95.386C33.2923 96.7821 34.1914 98.2294 35.0125 99.7199C35.2366 100.094 35.1856 99.9068 36.9323 96.9933C37.9234 95.3358 38.1233 94.6754 39.2442 94.8822C40.4716 95.109 40.1141 97.5663 40.1141 101.771Z" fill="url(#paint13_linear_262_138)"/>
<path d="M9.89893 95.5306C10.1145 95.1973 10.4183 95.3263 10.5914 95.2908C11.2025 95.1705 11.5374 95.5505 11.7685 96.011C11.9417 96.3624 12.3675 100.563 12.3693 100.586C12.4065 101.03 12.2948 100.846 13.8165 101.004C15.7718 101.207 16.2054 101.381 16.0964 100.99C15.994 100.377 15.9583 99.7545 15.9899 99.1348C15.8367 96.6203 15.1564 95.0277 17.3125 95.2017C18.4775 95.296 18.6974 99.4005 18.8203 100.579C18.8991 101.316 19.0575 102.246 19.112 103.343C19.3085 107.355 19.2124 106.521 18.8973 108.737C18.8495 108.936 18.7445 109.116 18.5952 109.257C18.4458 109.397 18.2587 109.491 18.0569 109.527C16.6971 109.748 16.6936 107.337 16.5101 105.885C16.2608 103.915 16.3915 103.878 15.9042 103.976C15.4169 104.074 14.9313 103.985 12.9535 104.028C12.7804 104.028 12.5683 103.811 12.4342 104.028C12.2117 104.393 12.384 107.625 12.0585 109C11.9855 109.224 11.8399 109.417 11.6447 109.548C11.4495 109.681 11.2159 109.744 10.9808 109.728C10.7456 109.713 10.5224 109.62 10.3462 109.464C10.17 109.307 10.051 109.096 10.008 108.865C9.7916 107.748 8.96065 96.9787 9.89893 95.5306Z" fill="url(#paint14_linear_262_138)"/>
<path d="M22.9821 101.424C23.0418 96.8237 23.1214 97.2296 22.5597 97.3231C20.195 97.7178 19.2186 96.6203 19.5752 95.592C19.9457 94.5299 23.6018 94.6926 25.461 94.6874C26.3843 94.6251 27.3116 94.6996 28.2127 94.9099C28.7883 95.0562 29.1986 95.8542 28.3399 96.8297C27.9071 97.3222 25.2706 97.0253 25.2888 97.4261C25.8003 108.965 26.2825 108.938 24.4942 109.111C23.2781 109.233 23.3499 108.02 23.1959 106.807C23.0013 105.02 22.9298 103.221 22.9821 101.424Z" fill="url(#paint15_linear_262_138)"/>
<path d="M44.9076 99.4152C44.9076 102.265 45.0807 103.689 45.0054 105.629C44.989 106.044 44.9699 105.858 46.8664 105.915C48.4079 105.96 49.4778 105.854 49.3315 107.326C49.1367 109.284 45.3213 108.687 43.4292 108.4C42.317 108.227 42.6242 106.139 42.2936 99.925C42.1352 96.9536 41.6946 94.6001 43.2379 94.5681C44.7994 94.5369 44.9067 94.7412 44.9076 99.4152Z" fill="url(#paint16_linear_262_138)"/>
<path d="M155.253 73.4717C163.156 73.7417 162.603 73.9122 163.087 78.1215C163.822 84.5042 164.599 97.402 163.685 104.169C163.489 105.617 161.482 105.344 160.475 105.561C160.434 105.569 142.077 106.335 141.615 106.301C138.982 106.107 129.815 106.536 127.475 105.17C126.298 104.477 126.605 99.623 126.367 98.0841C126.24 97.2627 125.988 85.072 125.988 85.0512C125.977 84.2267 126.038 83.4027 126.169 82.5887C126.548 74.3779 126.758 73.9772 129.046 73.8915C131.081 73.8153 148.852 73.2527 155.253 73.4717ZM130.816 75.7594C127.407 75.7083 128.246 75.4495 128.243 77.7207C128.243 77.7415 127.993 98.9661 128.243 100.035C128.26 100.121 128.26 100.209 128.243 100.295C128.147 101.257 128.121 102.226 128.166 103.192C128.147 104.013 129.131 103.792 129.605 103.838C136.048 104.46 160.092 103.741 160.313 103.684C161.537 103.366 162.343 104.24 162.249 103.106C162.163 102.087 161.673 82.2018 161.515 79.2052C161.367 76.4077 161.652 75.7083 160.858 75.6399C151.673 74.8522 131.673 75.7723 130.816 75.7594Z" fill="url(#paint17_linear_262_138)"/>
<path d="M155.619 83.2497C155.93 83.8998 154.483 86.474 152.949 85.0172C150.629 82.8144 148.038 85.2561 149.337 87.4263C150.127 88.7462 152.184 88.4199 154.559 90.5934C157.754 93.5172 155.727 99.9588 150.274 100.155C147.597 100.252 146.345 98.721 145.458 97.3482C144.772 96.2844 146.803 94.51 147.819 95.5098C148.56 96.2386 148.006 96.2818 149.773 96.9007C150.493 97.1526 152.342 96.3874 152.66 94.5862C152.651 94.0859 152.495 93.5995 152.209 93.1883C151.923 92.7772 151.522 92.4604 151.057 92.2777C148.413 91.1975 146.469 90.6332 145.764 87.7543C145.392 86.3454 145.579 84.8474 146.285 83.5731C146.991 82.2988 148.163 81.3469 149.555 80.9162C151.831 80.2237 154.595 81.1057 155.619 83.2497Z" fill="url(#paint18_linear_262_138)"/>
<path d="M139.367 90.1633C139.425 81.7804 137.946 79.3083 139.433 78.8522C140.138 78.6349 141.597 78.5059 141.812 79.1724C142.172 79.9757 142.336 80.8529 142.291 81.7319C142.291 81.7553 142.464 89.302 142.517 89.9694C143.056 96.3252 141.26 100.856 134.862 100.249C134.334 100.196 133.815 100.075 133.317 99.8896C133.113 99.8204 132.931 99.6966 132.792 99.5321C132.652 99.3677 132.56 99.1686 132.524 98.9557C131.725 95.4674 135.008 97.286 137.559 96.6844C139.768 96.1651 139.357 91.9117 139.367 90.1633Z" fill="url(#paint19_linear_262_138)"/>
<defs>
<linearGradient id="paint0_linear_262_138" x1="85.0583" y1="53.1794" x2="85.0583" y2="162.86" gradientUnits="userSpaceOnUse">
<stop stop-color="#E52D27"/>
<stop offset="1" stop-color="#B31217"/>
</linearGradient>
<linearGradient id="paint1_linear_262_138" x1="25.2575" y1="11.5623" x2="25.2575" y2="45.134" gradientUnits="userSpaceOnUse">
<stop stop-color="#E52D27"/>
<stop offset="1" stop-color="#B31217"/>
</linearGradient>
<linearGradient id="paint2_linear_262_138" x1="33.2435" y1="16.0396" x2="33.2435" y2="40.0173" gradientUnits="userSpaceOnUse">
<stop stop-color="#E52D27"/>
<stop offset="1" stop-color="#B31217"/>
</linearGradient>
<linearGradient id="paint3_linear_262_138" x1="17.1926" y1="16.1267" x2="17.1926" y2="40.106" gradientUnits="userSpaceOnUse">
<stop stop-color="#E52D27"/>
<stop offset="1" stop-color="#B31217"/>
</linearGradient>
<linearGradient id="paint4_linear_262_138" x1="85.648" y1="23.4976" x2="85.648" y2="44.2032" gradientUnits="userSpaceOnUse">
<stop stop-color="#E52D27"/>
<stop offset="1" stop-color="#B31217"/>
</linearGradient>
<linearGradient id="paint5_linear_262_138" x1="74.2939" y1="28.0485" x2="74.2939" y2="40.036" gradientUnits="userSpaceOnUse">
<stop stop-color="#E52D27"/>
<stop offset="1" stop-color="#B31217"/>
</linearGradient>
<linearGradient id="paint6_linear_262_138" x1="86.0035" y1="29.0653" x2="86.0035" y2="38.8614" gradientUnits="userSpaceOnUse">
<stop stop-color="#E52D27"/>
<stop offset="1" stop-color="#B31217"/>
</linearGradient>
<linearGradient id="paint7_linear_262_138" x1="97.3202" y1="28.9698" x2="97.3202" y2="38.758" gradientUnits="userSpaceOnUse">
<stop stop-color="#E52D27"/>
<stop offset="1" stop-color="#B31217"/>
</linearGradient>
<linearGradient id="paint8_linear_262_138" x1="148.425" y1="15.2354" x2="148.425" y2="36.0192" gradientUnits="userSpaceOnUse">
<stop stop-color="#E52D27"/>
<stop offset="1" stop-color="#B31217"/>
</linearGradient>
<linearGradient id="paint9_linear_262_138" x1="138.428" y1="20.0636" x2="138.428" y2="31.5089" gradientUnits="userSpaceOnUse">
<stop stop-color="#E52D27"/>
<stop offset="1" stop-color="#B31217"/>
</linearGradient>
<linearGradient id="paint10_linear_262_138" x1="158.25" y1="20.0472" x2="158.25" y2="31.8932" gradientUnits="userSpaceOnUse">
<stop stop-color="#E52D27"/>
<stop offset="1" stop-color="#B31217"/>
</linearGradient>
<linearGradient id="paint11_linear_262_138" x1="148.785" y1="18.1072" x2="148.785" y2="33.1787" gradientUnits="userSpaceOnUse">
<stop stop-color="#E52D27"/>
<stop offset="1" stop-color="#B31217"/>
</linearGradient>
<linearGradient id="paint12_linear_262_138" x1="28.7909" y1="89.2568" x2="28.7909" y2="113.518" gradientUnits="userSpaceOnUse">
<stop stop-color="#E52D27"/>
<stop offset="1" stop-color="#B31217"/>
</linearGradient>
<linearGradient id="paint13_linear_262_138" x1="35.0575" y1="94.6926" x2="35.0575" y2="108.978" gradientUnits="userSpaceOnUse">
<stop stop-color="#E52D27"/>
<stop offset="1" stop-color="#B31217"/>
</linearGradient>
<linearGradient id="paint14_linear_262_138" x1="14.3378" y1="95.1887" x2="14.3378" y2="109.731" gradientUnits="userSpaceOnUse">
<stop stop-color="#E52D27"/>
<stop offset="1" stop-color="#B31217"/>
</linearGradient>
<linearGradient id="paint15_linear_262_138" x1="24.168" y1="94.6661" x2="24.168" y2="109.12" gradientUnits="userSpaceOnUse">
<stop stop-color="#E52D27"/>
<stop offset="1" stop-color="#B31217"/>
</linearGradient>
<linearGradient id="paint16_linear_262_138" x1="45.7287" y1="94.5657" x2="45.7287" y2="108.715" gradientUnits="userSpaceOnUse">
<stop stop-color="#E52D27"/>
<stop offset="1" stop-color="#B31217"/>
</linearGradient>
<linearGradient id="paint17_linear_262_138" x1="145.043" y1="73.4214" x2="145.043" y2="106.302" gradientUnits="userSpaceOnUse">
<stop stop-color="#E52D27"/>
<stop offset="1" stop-color="#B31217"/>
</linearGradient>
<linearGradient id="paint18_linear_262_138" x1="150.7" y1="80.6843" x2="150.7" y2="100.16" gradientUnits="userSpaceOnUse">
<stop stop-color="#E52D27"/>
<stop offset="1" stop-color="#B31217"/>
</linearGradient>
<linearGradient id="paint19_linear_262_138" x1="137.505" y1="78.6769" x2="137.505" y2="100.303" gradientUnits="userSpaceOnUse">
<stop stop-color="#E52D27"/>
<stop offset="1" stop-color="#B31217"/>
</linearGradient>
</defs>
</svg>
