<svg width="100" height="100" viewBox="0 0 100 100" fill="none" xmlns="http://www.w3.org/2000/svg">
<path d="M80.625 35.3126C79.5312 35.1563 78.5938 34.6875 77.5 34.375C77.6562 33.75 77.6562 33.1251 77.9688 32.1876C80.1562 20.9376 78.5938 12.0313 73.5938 8.9063C68.5938 6.0938 60.4688 9.06255 52.3438 16.0938C51.7188 16.7188 50.625 17.3438 50 18.2813C49.5312 17.8126 48.9062 17.3438 48.4375 16.7188C39.8438 9.06255 31.4063 5.93755 26.0938 8.9063C21.0938 11.7188 19.5312 20.3126 21.7188 30.7813C21.875 31.8751 22.1875 32.9688 22.3438 33.9063C21.25 34.0626 20 34.5313 18.9062 35C8.75 38.5938 1.5625 44.375 1.5625 49.8438C1.5625 55.7813 9.21875 61.7188 19.6875 65.1563C20.625 65.3125 21.4062 65.7813 22.3438 65.7813C22.1875 66.875 21.7188 67.9688 21.7188 69.2188C19.6875 79.5313 21.25 87.8126 26.25 90.6251C31.25 93.7501 40 90.6251 48.125 83.1251C48.75 82.5001 49.375 82.0313 50.1562 81.4063C50.7812 82.0313 51.875 82.9688 52.8125 83.5938C60.625 90.6251 68.75 93.4376 73.9062 90.6251C78.9062 87.5001 80.625 78.7501 78.4375 67.8126C78.2812 67.1876 78.2812 66.0938 77.8125 65.1563C78.4375 65 78.9062 65 79.5312 64.5313C90.4688 61.25 98.4375 55.3125 98.4375 49.375C98.2812 44.5313 90.7812 38.9063 80.625 35.3126ZM55 19.3751C62.0312 13.2813 68.5938 11.0938 71.7188 12.6563C74.8438 14.3751 76.0938 21.875 74.0625 31.7188C73.9062 32.3438 73.9062 32.8126 73.5938 33.7501C69.375 32.8126 65.3125 32.0313 60.9375 31.7188C58.5938 28.2813 55.9375 24.6875 53.125 21.875C53.75 20.625 54.375 20.0001 55 19.3751ZM33.2812 59.8438C34.2188 61.5625 35.3125 63.1251 36.4062 64.6876C33.2812 64.5313 30.4688 64.0625 27.6563 63.4375C28.2813 60.7813 29.375 57.9688 30.7813 55.1563C31.4063 56.5625 32.5 58.4375 33.2812 59.8438ZM27.6563 37.3438C30.3125 36.7188 33.125 36.25 36.25 35.7813C35.1562 37.3438 34.2188 38.9063 33.4375 40.625C32.6562 42.3438 31.7188 43.75 30.7813 45.625C29.375 42.6563 28.5938 40 27.6563 37.3438ZM32.6562 50.3125C33.75 47.6563 35.3125 45.3125 36.875 42.6563C38.4375 40 40 37.6563 41.4062 35.1563C44.2188 35 47.0312 35 50 35C52.8125 35 55.9375 35.1563 58.5938 35.1563C60.3125 37.5 61.7188 40 63.125 42.3438C64.6875 44.6875 65.9375 47.3438 67.3438 50C66.25 52.6563 64.6875 55.0001 63.125 57.6563C61.5625 60.3126 60 62.6563 58.5938 65.1563C55.7812 65.3125 52.9688 65.3125 49.8438 65.3125C46.7188 65.3125 43.9062 65.1563 41.25 65.1563C39.5312 62.8125 38.125 60.3126 36.7188 57.6563C35.3125 55.0001 34.0625 52.9688 32.6562 50.3125ZM66.7188 59.8438C67.6562 58.125 68.4375 56.5625 69.375 54.8438C70.4688 57.5 71.5625 60.3126 72.5 63.1251C69.6875 63.7501 66.5625 64.2188 63.4375 64.6876C64.6875 63.1251 65.7812 61.4063 66.7188 59.8438ZM69.5312 45.4688C68.5938 43.75 67.8125 42.1875 66.875 40.4688C65.9375 38.75 64.8438 37.3438 64.0625 35.9375C67.1875 36.4063 70 36.875 72.6562 37.5C71.7188 40.1563 70.625 42.8125 69.5312 45.4688ZM50 24.3751C52.0312 26.5626 53.75 28.75 55.4688 31.0938C51.7188 30.9375 47.9688 30.9375 44.2188 31.0938C46.25 28.5938 48.2812 26.4063 50 24.3751ZM28.125 12.8126C31.25 11.0938 38.4375 13.4376 45.625 20.3125C46.0938 20.7813 46.5625 21.2501 47.1875 21.5626C44.375 24.6875 41.7188 28.1251 39.0625 31.4063C34.8438 31.8751 30.4688 32.5 26.4062 33.4375C26.25 32.5 25.9375 31.4063 25.7812 30.6251C24.0625 21.4063 25.1562 14.5313 28.125 12.8126ZM23.75 62.5C23.125 62.3438 22.1875 62.0313 21.4062 61.875C17.1875 60.7813 12.8125 58.5938 9.375 55.9375C7.1875 54.375 6.09375 52.5 5.625 50.3125C5.625 46.875 11.7188 42.5 20.3125 39.3751C21.4062 38.9063 22.5 38.75 23.5938 38.2813C24.8438 42.5 26.4062 46.4063 28.125 50.3125C26.5625 54.2188 24.8438 58.125 23.75 62.5ZM45.4688 80.7813C42.3438 83.5938 38.75 85.7813 34.6875 87.3438C32.5 88.4376 30.1562 88.4376 28.125 87.5001C25 85.7813 23.9062 79.2188 25.4687 70.1563C25.625 69.0626 25.9375 67.9688 26.0938 67.0313C30.3125 67.9688 34.6875 68.5938 38.75 68.75C41.0938 72.1876 44.0625 75.7813 46.875 78.9063C46.7188 79.8438 46.0938 80.3126 45.4688 80.7813ZM50.1562 76.4063C48.125 74.2188 46.4062 72.0313 44.5312 69.6875C46.25 69.6875 47.9688 69.8438 50 69.8438C52.0312 69.8438 53.9062 69.8438 55.625 69.6875C53.9062 71.7188 52.1875 73.9063 50.1562 76.4063ZM74.8438 81.8751C74.6875 84.0626 73.5938 86.4063 71.7188 87.8126C68.5938 89.5313 62.3438 87.3438 55.4688 81.2501C54.8438 80.6251 53.9062 80 53.125 79.0625C55.9375 75.9375 58.5938 72.5 60.9375 68.9063C65.3125 68.75 69.5312 67.8125 73.5938 66.875C73.75 67.5 73.75 68.4375 74.0625 69.0625C75.1562 73.4376 75.1562 77.8126 74.8438 81.8751ZM78.2812 61.7188C77.8125 61.875 77.1875 61.875 76.5625 62.1875C75.3125 57.9688 73.4375 54.0625 71.7188 50.1563C73.4375 46.4063 75 42.3438 76.25 38.2813C77.3438 38.4375 78.2812 38.9063 79.0625 39.2188C87.8125 42.3438 93.9062 46.7188 93.9062 50.1563C94.0625 53.75 87.6562 58.5938 78.2812 61.7188ZM50 58.75C54.8438 58.75 58.5938 54.8438 58.5938 50.1563C58.5938 45.4688 54.6875 41.5625 50 41.5625C45.4688 41.5625 41.4062 45.4688 41.4062 50.1563C41.4062 54.8438 45.1562 58.75 50 58.75Z" fill="white"/>
</svg>
