<svg width="68" height="37" viewBox="0 0 68 37" fill="none" xmlns="http://www.w3.org/2000/svg">
<path d="M53.0719 23.7279C50.1329 23.7279 47.2598 23.0535 44.8161 21.7901C42.3723 20.5266 40.4677 18.7308 39.3429 16.6298C38.2182 14.5288 37.9239 12.2169 38.4973 9.98641C39.0707 7.75596 40.486 5.70716 42.5642 4.0991C44.6425 2.49103 47.2903 1.39593 50.1729 0.952265C53.0554 0.508601 56.0433 0.736305 58.7587 1.60658C61.474 2.47686 63.7948 3.95063 65.4277 5.84151C67.0605 7.73239 67.9321 9.95547 67.9321 12.2296L68 13.8722C68 16.8922 67.2313 19.8826 65.7377 22.6726C64.2441 25.4627 62.0549 27.9978 59.2951 30.1332C56.5354 32.2687 53.259 33.9626 49.6532 35.1183C46.0473 36.274 42.1826 36.8688 38.2797 36.8688V30.2983C41.0688 30.3041 43.8316 29.8821 46.4085 29.0565C48.9854 28.231 51.3252 27.0184 53.2927 25.4888C54.0575 24.8983 54.7629 24.2635 55.4029 23.5899C54.6317 23.683 53.8524 23.7302 53.0719 23.7312V23.7279ZM14.8601 23.7279C11.9211 23.7279 9.04803 23.0535 6.60429 21.7901C4.16056 20.5266 2.2559 18.7308 1.13117 16.6298C0.00643873 14.5288 -0.287842 12.2169 0.28554 9.98641C0.858922 7.75596 2.27421 5.70716 4.35244 4.0991C6.43067 2.49103 9.07849 1.39593 11.9611 0.952265C14.8437 0.508601 17.8315 0.736305 20.5469 1.60658C23.2622 2.47686 25.583 3.95063 27.2159 5.84151C28.8487 7.73239 29.7203 9.95547 29.7203 12.2296L29.7882 13.8722C29.7882 19.9713 26.657 25.8206 21.0833 30.1332C15.5097 34.4459 7.95025 36.8688 0.0679387 36.8688V30.2983C2.85697 30.3041 5.61981 29.8821 8.19672 29.0565C10.7736 28.231 13.1135 27.0184 15.0809 25.4888C15.8457 24.8983 16.5512 24.2635 17.1911 23.5899C16.4199 23.683 15.6406 23.7302 14.8601 23.7312V23.7279Z" fill="url(#paint0_linear_423_319)"/>
<defs>
<linearGradient id="paint0_linear_423_319" x1="0" y1="18.8001" x2="68" y2="18.8001" gradientUnits="userSpaceOnUse">
<stop stop-color="#FFE259"/>
<stop offset="1" stop-color="#FFA751"/>
</linearGradient>
</defs>
</svg>
