<svg width="173" height="174" viewBox="0 0 173 174" fill="none" xmlns="http://www.w3.org/2000/svg">
<path d="M147.994 152.602C145.552 149.497 143.372 146.649 140.681 143.854C140.599 143.769 140.489 143.731 140.365 143.722C121.414 143.916 57.9265 143.455 55.1568 143.637C54.7329 143.664 54.277 143.901 54.2304 143.942C51.0825 146.659 48.1936 149.516 45.5749 152.152C45.3081 152.422 45.4937 152.883 45.8754 152.888C66.7892 153.179 139.037 153.389 147.659 153.302C148.016 153.298 148.216 152.885 147.994 152.603L147.994 152.602ZM54.8822 144.499C81.7802 144.462 108.273 144.912 140.187 144.587C141.124 145.566 141.996 146.551 142.838 147.546C133.255 147.669 56.2317 147.317 51.8448 147.238C52.842 146.307 53.8591 145.385 54.8822 144.499ZM46.9054 152.038C48.1702 150.772 49.5318 149.428 50.946 148.085C50.946 148.085 138.552 148.466 143.552 148.4C144.705 149.799 145.769 151.166 146.774 152.447C116.541 152.74 75.6692 152.434 46.9062 152.039L46.9054 152.038Z" fill="url(#paint0_linear_262_119)"/>
<path d="M114.292 162.727C113.683 160.688 112.94 158.301 112.055 156.069C111.993 155.911 111.845 155.805 111.677 155.797C102.598 155.308 93.0839 155.168 82.5937 155.367C82.4348 155.37 82.2898 155.461 82.2172 155.602C80.9472 158.083 79.7972 160.598 79.0564 162.271C78.9968 162.406 79.0089 162.56 79.09 162.684C79.4276 163.193 79.1108 162.771 113.878 163.282C114.167 163.286 114.374 163.004 114.291 162.727H114.292ZM80.1192 162.008C80.8246 160.434 81.8011 158.327 82.8691 156.227C93.1296 156.036 102.453 156.173 111.354 156.644C112.102 158.565 112.747 160.594 113.292 162.4C102.059 162.037 89.7218 161.91 80.1192 162.008Z" fill="url(#paint1_linear_262_119)"/>
<path d="M165.771 162.143L147.219 142.663C146.018 141.402 144.357 140.649 142.623 140.573C144.125 139.758 145.183 138.216 145.314 136.43C146.555 119.395 146.772 103.367 144.978 84.3272C144.741 81.8121 142.66 79.8151 140.138 79.683C136.754 79.5052 133.388 79.3506 130.034 79.2177C130.695 80.5913 131.32 81.9814 131.909 83.387C133.273 83.4508 134.639 83.5182 136.007 83.5907C137.971 83.6943 139.591 85.2484 139.776 87.2065C141.387 104.306 141.186 118.684 140.076 133.911C139.932 135.885 138.335 137.474 136.36 137.608C111.483 139.294 87.0366 139.552 60.7697 138.133C58.9065 138.032 57.2004 136.603 56.995 134.411C55.522 118.706 55.4495 103.507 56.6859 87.7815C56.8396 85.8226 58.4342 84.2433 60.3941 84.1087C62.2046 83.9835 64.0074 83.8679 65.8024 83.7591C65.3431 83.3956 65.0038 82.9466 64.7689 82.5003C60.3337 83.2877 55.8406 83.7444 51.338 83.8679C51.2275 84.2236 51.1541 84.5948 51.1231 84.9782C49.7459 102.481 49.8504 119.518 51.4684 137C51.6083 138.507 52.3214 139.756 53.3411 140.598C51.9649 140.735 50.656 141.291 49.5992 142.2L26.6106 161.985C25.8888 162.606 25.6306 163.579 25.9458 164.475C25.7999 166.133 26.4698 169.11 28.0999 169.11H164.117C165.712 169.11 166.395 166.14 166.276 164.462C166.56 163.65 166.372 162.774 165.771 162.141V162.143ZM164.117 165.139H28.1008C26.7833 165.139 26.1763 163.501 27.1744 162.641L50.163 142.855C51.2318 141.935 52.5977 141.428 54.0085 141.428H142.325C143.931 141.428 145.487 142.095 146.594 143.258L165.146 162.737C166.007 163.641 165.366 165.138 164.118 165.138L164.117 165.139Z" fill="url(#paint2_linear_262_119)"/>
<path d="M76.5215 74.8343C75.0908 74.3344 73.6826 73.3035 74.0211 71.9091C74.0772 71.6769 74.3112 71.5344 74.5426 71.5914C74.7748 71.6475 74.9164 71.8806 74.8603 72.1129C74.6583 72.9478 75.7824 73.6618 76.8064 74.0193C88.1867 77.9977 100.45 78.8482 112.269 76.4773C114.083 76.1138 116.135 75.6105 117.513 74.2351C117.683 74.0667 117.956 74.0676 118.124 74.236C118.292 74.4052 118.292 74.678 118.124 74.8464C116.575 76.3901 114.378 76.9341 112.44 77.3234C100.886 79.6399 88.4475 79.0027 76.5223 74.8334L76.5215 74.8343Z" fill="url(#paint3_linear_262_119)"/>
<path d="M137.632 100.502C135.917 92.019 133.009 83.8359 128.989 76.1768C128.308 73.3716 126.303 71.5473 123.353 71.8486C122.872 71.8978 122.424 71.9945 122.005 72.1335C116.898 66.9584 110.149 63.8087 102.708 62.7761C102.756 62.385 102.804 61.8868 102.879 61.235C107.494 60.7031 110.446 60.0685 113.229 59.5747C116.753 58.9505 120.747 58.2433 123.445 56.2584C126.662 53.8919 127.667 48.5863 127.98 45.6344C128.832 37.6127 128.737 29.4329 126.512 21.6883C124.25 13.822 117.25 11.9985 112.182 11.3121C110.631 11.1014 109.082 10.9244 107.54 10.7794C106.424 8.01223 104.152 5.8503 101.414 4.96447C98.0449 3.87746 92.5719 4.25908 88.7876 5.19413C87.8681 5.4212 86.9089 5.71475 86.1353 6.31653C84.8791 7.29475 83.6289 9.83658 83.0349 11.3138C81.0758 11.5936 79.1315 11.932 77.2044 12.3283C74.6496 12.8524 71.7228 13.5561 69.313 15.263C65.1558 18.2089 64.5704 24.2655 63.9583 29.2879C63.2659 34.9655 63.2909 40.8478 64.0429 46.7724C65.0082 54.3754 67.5025 56.9586 73.6559 58.9634C78.0799 60.4053 82.7879 61.3032 87.831 61.6589C87.9519 62.2952 88.1151 62.8426 88.3214 63.3157C83.6004 64.2836 78.844 66.0216 74.2516 68.5496C72.6267 69.4441 71.3679 70.3662 70.4847 71.6699C68.9098 71.4342 67.1589 72.0481 65.6713 73.5581C65.6557 73.5737 65.641 73.5901 65.6255 73.6056C58.8203 73.8292 51.68 75.1554 45.2124 77.3579C45.2651 75.6596 44.7444 74.0434 44.1755 72.5497C41.7407 66.1667 37.7639 60.3837 32.6769 55.825C32.3453 55.5271 31.9818 55.231 31.5044 55.1533C30.4329 54.9814 29.6144 55.989 29.3606 57.0752C29.0213 58.5308 29.2881 60.0521 29.5635 61.3636C30.9907 68.1499 33.6214 74.5597 37.3815 80.4169C37.694 80.9038 38.0575 81.2993 38.4529 81.6066C38.9736 83.1409 40.6477 84.0043 43.4338 84.17C50.5395 84.594 57.5943 84.1804 64.4617 82.9906C65.4399 84.2762 67.038 84.9246 68.6707 84.9246C68.9478 84.9246 69.2172 84.9065 69.4788 84.872C70.6988 92.7279 73.8208 100.333 77.0119 107.69C78.8492 111.925 80.9161 116.231 85.0302 118.25C84.9792 118.33 84.9533 118.426 84.9637 118.526C85.5093 124.044 86.4591 127.638 91.6912 129.24C96.7222 130.784 103.965 129.752 106.626 125.298C107.478 123.873 107.787 122.224 108.086 120.629C108.691 117.406 108.879 117.606 108.898 117.303C113.121 114.852 115.841 107.841 117.489 103.217C119.561 97.4022 121.402 91.4526 122.985 85.4599C124.856 90.7697 127.423 95.8697 130.575 100.546C129.243 100.891 127.782 101.63 126.209 102.76C120.664 106.748 116.093 112.075 112.989 118.162C112.83 118.474 112.59 118.947 112.641 119.466C112.747 120.516 113.865 121.048 114.949 121.048C116.406 121.048 117.87 120.391 119.141 119.751C125.541 116.528 130.01 112.91 134.699 108.232C135.407 107.525 135.979 106.799 136.352 106.068C137.445 105.483 138.25 103.557 137.631 100.499L137.632 100.502ZM38.1067 79.9524C34.4036 74.1841 31.8135 67.871 30.4079 61.1875C30.1394 59.9105 29.9019 58.5559 30.2015 57.272C30.3293 56.7229 30.7386 55.9985 31.2713 55.9985C31.5752 55.9985 31.8653 56.2575 32.0993 56.4682C37.0853 60.9354 40.9818 66.6035 43.3682 72.8579C43.9078 74.273 44.4008 75.796 44.349 77.3493C44.2074 81.6109 40.0398 82.9604 38.1076 79.9524H38.1067ZM63.9747 82.2006C57.2126 83.3455 50.3392 83.7193 43.4839 83.311C41.9073 83.2169 40.7556 82.8965 40.0372 82.3569C42.2173 82.8249 44.621 81.3226 45.1217 78.3033C51.3675 76.1345 58.2737 74.7962 64.8985 74.4992C63.3721 76.7121 62.873 79.9403 63.9747 82.2006ZM73.9218 58.1432C68.0205 56.2213 65.812 53.8677 64.8985 46.6644C64.1551 40.8106 64.1318 35 64.8148 29.3932C66.1409 18.505 67.3626 15.2319 77.3771 13.1744C88.9776 10.7906 100.695 10.6266 112.066 12.1669C119.845 13.2219 124.044 16.2317 125.682 21.9266C127.192 27.1786 127.806 32.9426 127.56 39.5484C127.373 44.5621 126.935 52.6184 122.934 55.5625C119.916 57.7831 114.96 58.3426 111.231 59.061C96.6686 61.8808 84.4646 61.5795 73.9218 58.1432ZM71.6157 90.7257C75.5424 88.2918 80.1926 87.0329 84.7988 87.1452C81.9315 91.2264 80.7322 96.5915 79.8619 101.577C77.9573 101.577 76.1226 100.935 74.6911 99.8715C73.5031 96.8264 72.4428 93.7829 71.6157 90.7257ZM97.0503 118.887C83.47 119.24 81.7009 117.33 75.2342 101.244C76.7244 102.065 78.4753 102.508 80.2453 102.431C80.4482 102.421 80.6165 102.273 80.6511 102.072C81.8011 95.3966 83.4933 87.9499 89.0406 84.063C91.0065 82.6859 93.3411 81.9252 95.7137 81.7845C96.7714 93.8451 97.1841 106.777 97.0503 118.887ZM109.382 115.944C106.568 118.111 101.451 118.713 97.9145 118.858C98.0475 106.748 97.6348 93.8235 96.5788 81.7612C99.0922 81.7724 101.603 82.4778 103.718 83.8834C109.133 87.481 111.116 94.5237 112.343 100.938C112.38 101.134 112.547 101.279 112.747 101.288C114.321 101.361 115.889 101.205 117.414 100.823C115.843 105.377 113.184 113.019 109.383 115.945L109.382 115.944ZM117.751 99.837C116.244 100.272 114.691 100.473 113.125 100.437C112.215 95.7635 110.883 90.7982 108.131 86.9975C112.136 87.0727 116.105 88.6881 119.338 89.9995C120.041 90.2853 120.482 90.6333 120.587 90.8543C119.705 93.8718 118.758 96.8695 117.75 99.8379L117.751 99.837ZM120.869 89.883C120.489 89.5687 120.007 89.3382 119.662 89.1983C116.181 87.7867 111.854 86.0341 107.464 86.136C101.464 78.8602 90.9815 79.3523 85.4282 86.3043C80.5466 86.0626 75.5804 87.317 71.386 89.8528C70.4406 86.1481 69.8509 82.4182 69.8052 78.6331C69.7301 72.4875 71.6813 70.9507 74.6669 69.3068C79.0486 66.8936 83.8594 65.1254 88.7781 64.1506C89.5017 65.2057 90.5464 65.7565 91.8958 66.0941C95.2199 66.923 98.7917 66.3687 101.7 64.5832C102.198 64.2776 102.421 64.0634 102.555 63.6171C110.069 64.6065 117.115 67.8494 122.482 73.9078C124.171 75.8142 124.231 76.7112 123.7 78.9897C122.854 82.6315 121.907 86.2698 120.869 89.883ZM133.942 107.771C129.488 112.322 124.414 116.131 118.753 118.982C117.587 119.569 116.338 120.146 115.022 120.185C114.423 120.206 113.558 119.966 113.5 119.383C113.475 119.136 113.608 118.851 113.759 118.556C116.799 112.591 121.279 107.372 126.713 103.464C128.835 101.937 130.675 101.174 132.215 101.174C134.407 101.174 135.944 102.875 135.972 104.241C135.999 105.64 134.831 106.862 133.942 107.771ZM136.822 103.965C136.746 103.147 136.34 102.346 135.51 101.586C134.409 100.578 133.056 100.174 131.495 100.37C128.322 95.7186 125.736 90.635 123.853 85.3356C126.588 85.1595 129.135 82.4035 129.237 78.5718C132.697 85.5791 135.234 93.0024 136.785 100.673C137.072 102.09 137.029 103.188 136.821 103.965H136.822Z" fill="url(#paint4_linear_262_119)"/>
<path d="M81.0171 31.6337C78.6618 31.6337 76.4023 34.1427 76.0267 36.5455C75.4707 40.1096 78.3898 43.3775 81.2027 43.1754C83.9431 42.9786 86.6274 39.2626 85.7113 35.6899C85.088 33.262 82.8647 31.6337 81.0171 31.6337Z" fill="url(#paint5_linear_262_119)"/>
<path d="M110.015 30.5139C106.749 30.5139 104.695 34.5166 105.301 37.8734C105.644 39.7729 106.978 41.4142 108.621 41.9564C110.329 42.5228 112.42 41.9176 113.705 40.4861C116.895 36.9306 114.546 30.5139 110.015 30.5139Z" fill="url(#paint6_linear_262_119)"/>
<path d="M118.634 26.1615C115.82 23.0162 110.678 23.1224 106.684 22.84C98.4654 22.2555 90.2114 22.537 81.8857 23.731C78.1507 24.2663 72.5068 25.0805 70.7584 29.091C68.8011 33.578 69.2803 39.1779 70.0271 43.0848C71.311 49.795 74.5383 51.3534 81.3504 51.8706C91.6835 52.6546 102.312 53.0604 112.449 50.4288C118.635 48.8246 119.933 46.4123 120.585 42.6349C121.96 34.6857 121.303 29.1436 118.634 26.1623V26.1615ZM80.9619 44.0466C77.5999 44.0466 74.5677 40.2934 75.1746 36.4116C75.6616 33.2931 78.7637 30.247 81.7804 30.8436C84.0356 31.29 85.9514 33.1506 86.548 35.4749C87.6135 39.6269 84.4258 44.0466 80.9619 44.0466ZM98.8021 37.2543C96.9674 39.1969 93.5251 39.2246 91.6602 37.3096C91.4935 37.1395 91.4979 36.8658 91.6679 36.6991C91.8389 36.5334 92.1126 36.5368 92.2784 36.7078C93.7703 38.2386 96.6514 38.274 98.1744 36.662C98.3385 36.4885 98.6113 36.4816 98.7849 36.6448C98.9584 36.8079 98.9662 37.0816 98.803 37.2552L98.8021 37.2543ZM114.347 41.0627C113.222 42.3164 111.56 43.0269 109.948 43.0269C107.082 43.0269 104.934 40.6992 104.451 38.027C103.595 33.2879 107.239 28.2423 111.935 30.02C116.107 31.5982 117.423 37.6333 114.347 41.0627Z" fill="url(#paint7_linear_262_119)"/>
<path d="M13.8393 81.9796C6.93908 79.1183 4.20214 69.28 8.63218 63.2656C8.77379 63.074 9.04316 63.0325 9.2357 63.1741C9.42737 63.3157 9.46882 63.586 9.32722 63.7776C5.2287 69.3404 7.78692 78.5355 14.17 81.1818C14.6906 81.3977 14.3737 82.1998 13.8393 81.9796Z" fill="url(#paint8_linear_262_119)"/>
<path d="M17.2213 77.0359C12.2655 74.0469 11.0136 66.4413 14.7486 62.0207C14.9023 61.8385 15.1742 61.8161 15.3573 61.9698C15.5394 62.1235 15.5619 62.3963 15.4082 62.5785C12.0159 66.5932 13.1668 73.5815 17.6677 76.2969C18.1555 76.5913 17.71 77.3295 17.2213 77.0359Z" fill="url(#paint9_linear_262_119)"/>
<path d="M51.6136 57.7632C51.358 57.7632 51.1603 57.5439 51.1828 57.2927C51.7008 51.5192 47.1154 45.7837 41.3704 45.0187C41.1338 44.9877 40.968 44.7701 40.9991 44.5335C41.0302 44.2969 41.2529 44.132 41.4843 44.1623C47.6671 44.9859 52.6005 51.1574 52.0427 57.3695C52.0229 57.594 51.8346 57.7624 51.6127 57.7624L51.6136 57.7632Z" fill="url(#paint10_linear_262_119)"/>
<path d="M56.8069 59.1576C56.5694 59.1576 56.376 58.9651 56.3752 58.7276C56.3596 54.7172 56.199 50.1015 54.4826 46.079C52.666 41.8199 49.0554 38.7808 45.2841 38.3352C45.0475 38.3076 44.8783 38.0926 44.9059 37.8561C44.9335 37.6186 45.1511 37.4485 45.3851 37.4779C50.328 38.0616 53.7358 42.129 55.2761 45.7405C57.0555 49.9116 57.2222 54.6291 57.2377 58.7242C57.2377 58.9633 57.0305 59.1395 56.8069 59.1576Z" fill="url(#paint11_linear_262_119)"/>
<defs>
<linearGradient id="paint0_linear_262_119" x1="96.7684" y1="143.593" x2="96.7684" y2="153.322" gradientUnits="userSpaceOnUse">
<stop stop-color="#E52D27"/>
<stop offset="1" stop-color="#B31217"/>
</linearGradient>
<linearGradient id="paint1_linear_262_119" x1="96.6644" y1="155.28" x2="96.6644" y2="163.282" gradientUnits="userSpaceOnUse">
<stop stop-color="#E52D27"/>
<stop offset="1" stop-color="#B31217"/>
</linearGradient>
<linearGradient id="paint2_linear_262_119" x1="96.1096" y1="79.2177" x2="96.1096" y2="169.11" gradientUnits="userSpaceOnUse">
<stop stop-color="#E52D27"/>
<stop offset="1" stop-color="#B31217"/>
</linearGradient>
<linearGradient id="paint3_linear_262_119" x1="96.1102" y1="71.5789" x2="96.1102" y2="78.653" gradientUnits="userSpaceOnUse">
<stop stop-color="#E52D27"/>
<stop offset="1" stop-color="#B31217"/>
</linearGradient>
<linearGradient id="paint4_linear_262_119" x1="83.5238" y1="4.30408" x2="83.5238" y2="129.913" gradientUnits="userSpaceOnUse">
<stop stop-color="#E52D27"/>
<stop offset="1" stop-color="#B31217"/>
</linearGradient>
<linearGradient id="paint5_linear_262_119" x1="80.9261" y1="31.6337" x2="80.9261" y2="43.1844" gradientUnits="userSpaceOnUse">
<stop stop-color="#E52D27"/>
<stop offset="1" stop-color="#B31217"/>
</linearGradient>
<linearGradient id="paint6_linear_262_119" x1="110.186" y1="30.5139" x2="110.186" y2="42.1669" gradientUnits="userSpaceOnUse">
<stop stop-color="#E52D27"/>
<stop offset="1" stop-color="#B31217"/>
</linearGradient>
<linearGradient id="paint7_linear_262_119" x1="95.3301" y1="22.5459" x2="95.3301" y2="52.4613" gradientUnits="userSpaceOnUse">
<stop stop-color="#E52D27"/>
<stop offset="1" stop-color="#B31217"/>
</linearGradient>
<linearGradient id="paint8_linear_262_119" x1="10.4577" y1="63.09" x2="10.4577" y2="82.0175" gradientUnits="userSpaceOnUse">
<stop stop-color="#E52D27"/>
<stop offset="1" stop-color="#B31217"/>
</linearGradient>
<linearGradient id="paint9_linear_262_119" x1="15.2283" y1="61.8678" x2="15.2283" y2="77.1036" gradientUnits="userSpaceOnUse">
<stop stop-color="#E52D27"/>
<stop offset="1" stop-color="#B31217"/>
</linearGradient>
<linearGradient id="paint10_linear_262_119" x1="46.5406" y1="44.1587" x2="46.5406" y2="57.7632" gradientUnits="userSpaceOnUse">
<stop stop-color="#E52D27"/>
<stop offset="1" stop-color="#B31217"/>
</linearGradient>
<linearGradient id="paint11_linear_262_119" x1="51.0703" y1="37.4746" x2="51.0703" y2="59.1576" gradientUnits="userSpaceOnUse">
<stop stop-color="#E52D27"/>
<stop offset="1" stop-color="#B31217"/>
</linearGradient>
</defs>
</svg>
