<svg width="22" height="23" viewBox="0 0 22 23" fill="none" xmlns="http://www.w3.org/2000/svg">
<path fill-rule="evenodd" clip-rule="evenodd" d="M15.0581 9.01084C15.0581 12.3455 12.3647 15.0356 9.05845 15.0356C5.75221 15.0356 3.05884 12.3455 3.05884 9.01084C3.05884 5.67619 5.75221 2.98608 9.05845 2.98608C12.3647 2.98608 15.0581 5.67619 15.0581 9.01084ZM13.699 16.341C12.3578 17.1968 10.7659 17.6926 9.05845 17.6926C4.27754 17.6926 0.401855 13.8056 0.401855 9.01084C0.401855 4.21605 4.27754 0.329102 9.05845 0.329102C13.8393 0.329102 17.715 4.21605 17.715 9.01084C17.715 11.1317 16.9568 13.0749 15.6973 14.5827L21.2009 20.1245L19.3286 22.0098L13.699 16.341Z" fill="black"/>
</svg>
