<svg width="17" height="17" viewBox="0 0 17 17" fill="none" xmlns="http://www.w3.org/2000/svg">
<path d="M14.5987 6.46999C14.5167 6.34961 14.4037 6.25356 14.2718 6.19197C14.1398 6.13037 13.9936 6.10551 13.8487 6.11999H10.2487L9.02868 2.35999C8.9512 2.15138 8.79755 1.97986 8.59868 1.87999C8.39371 1.79554 8.16366 1.79554 7.95868 1.87999C7.84045 1.92346 7.73336 1.99266 7.64516 2.0826C7.55696 2.17253 7.48985 2.28094 7.44868 2.39999L6.24868 6.11999H2.60868C2.38702 6.11926 2.17306 6.20128 2.00868 6.34999C1.92159 6.43124 1.85325 6.53048 1.8084 6.64081C1.76355 6.75115 1.74328 6.86993 1.74899 6.9889C1.7547 7.10786 1.78626 7.22415 1.84147 7.32969C1.89668 7.43522 1.97421 7.52746 2.06868 7.59999L5.15868 9.96999L3.96868 13.73C3.91597 13.938 3.9459 14.1584 4.05218 14.3448C4.15845 14.5313 4.33282 14.6693 4.53868 14.73C4.6576 14.7668 4.78336 14.7761 4.90639 14.757C5.02941 14.7379 5.14648 14.6911 5.24868 14.62L8.24868 12.3L11.2487 14.59C11.393 14.7148 11.5779 14.7824 11.7687 14.78H11.8587C12.0776 14.7506 12.2775 14.64 12.4187 14.47C12.5036 14.3611 12.5607 14.2332 12.5851 14.0973C12.6095 13.9614 12.6005 13.8216 12.5587 13.69L11.3587 9.94999L14.4387 7.58999C14.602 7.45815 14.7094 7.2693 14.7391 7.06148C14.7688 6.85365 14.7186 6.6423 14.5987 6.46999Z" fill="#0056D2"/>
</svg>
