<svg width="18" height="17" viewBox="0 0 18 17" fill="none" xmlns="http://www.w3.org/2000/svg">
<path d="M8.41023 0.904639C8.60456 0.306561 9.45068 0.306562 9.645 0.90464L11.2138 5.73289C11.3007 6.00036 11.55 6.18145 11.8312 6.18145H16.9079C17.5368 6.18145 17.7982 6.98616 17.2895 7.35579L13.1823 10.3398C12.9548 10.5051 12.8596 10.7981 12.9465 11.0656L14.5153 15.8938C14.7096 16.4919 14.0251 16.9893 13.5163 16.6196L9.40918 13.6356C9.18166 13.4703 8.87357 13.4703 8.64605 13.6356L4.53889 16.6196C4.03014 16.9893 3.34561 16.4919 3.53994 15.8938L5.10873 11.0656C5.19564 10.7981 5.10043 10.5051 4.87291 10.3398L0.765755 7.35579C0.256999 6.98616 0.518466 6.18145 1.14732 6.18145H6.22405C6.50528 6.18145 6.75453 6.00036 6.84143 5.73289L8.41023 0.904639Z" fill="#055050"/>
</svg>
