<svg width="33" height="33" viewBox="0 0 33 33" fill="none" xmlns="http://www.w3.org/2000/svg">
<path d="M3.3 33C2.3925 33 1.61563 32.6769 0.969375 32.0306C0.323125 31.3844 0 30.6075 0 29.7V13.2C0 12.2925 0.323125 11.5156 0.969375 10.8694C1.61563 10.2231 2.3925 9.9 3.3 9.9H29.7C30.6075 9.9 31.3844 10.2231 32.0306 10.8694C32.6769 11.5156 33 12.2925 33 13.2V29.7C33 30.6075 32.6769 31.3844 32.0306 32.0306C31.3844 32.6769 30.6075 33 29.7 33H3.3ZM3.3 29.7H29.7V13.2H3.3V29.7ZM13.2 28.05L23.1 21.45L13.2 14.85V28.05ZM3.3 8.25V4.95H29.7V8.25H3.3ZM8.25 3.3V0H24.75V3.3H8.25Z" fill="white"/>
</svg>
