<svg width="33" height="33" viewBox="0 0 33 33" fill="none" xmlns="http://www.w3.org/2000/svg">
<path d="M21.6125 23.8875L23.8875 21.6125L17.875 15.6V8.125H14.625V16.9L21.6125 23.8875ZM16.25 32.5C14.0021 32.5 11.8896 32.0734 9.9125 31.2203C7.93542 30.3672 6.21562 29.2094 4.75312 27.7469C3.29062 26.2844 2.13281 24.5646 1.27969 22.5875C0.426562 20.6104 0 18.4979 0 16.25C0 14.0021 0.426562 11.8896 1.27969 9.9125C2.13281 7.93542 3.29062 6.21562 4.75312 4.75312C6.21562 3.29062 7.93542 2.13281 9.9125 1.27969C11.8896 0.426562 14.0021 0 16.25 0C18.4979 0 20.6104 0.426562 22.5875 1.27969C24.5646 2.13281 26.2844 3.29062 27.7469 4.75312C29.2094 6.21562 30.3672 7.93542 31.2203 9.9125C32.0734 11.8896 32.5 14.0021 32.5 16.25C32.5 18.4979 32.0734 20.6104 31.2203 22.5875C30.3672 24.5646 29.2094 26.2844 27.7469 27.7469C26.2844 29.2094 24.5646 30.3672 22.5875 31.2203C20.6104 32.0734 18.4979 32.5 16.25 32.5ZM16.25 29.25C19.8521 29.25 22.9193 27.9839 25.4516 25.4516C27.9839 22.9193 29.25 19.8521 29.25 16.25C29.25 12.6479 27.9839 9.58073 25.4516 7.04844C22.9193 4.51615 19.8521 3.25 16.25 3.25C12.6479 3.25 9.58073 4.51615 7.04844 7.04844C4.51615 9.58073 3.25 12.6479 3.25 16.25C3.25 19.8521 4.51615 22.9193 7.04844 25.4516C9.58073 27.9839 12.6479 29.25 16.25 29.25Z" fill="white"/>
</svg>
